<mxfile host="Electron" modified="2023-07-17T10:39:44.669Z" agent="Mozilla/5.0 (Windows NT 6.1; Win64; x64) AppleWebKit/537.36 (KHTML, like Gecko) draw.io/21.1.2 Chrome/106.0.5249.199 Electron/21.4.3 Safari/537.36" etag="9LXKVNDMz_meFo4F7_0J" version="21.1.2" type="device">
  <diagram id="IPethDhe6ZVQqmIALtQ7" name="ページ1">
    <mxGraphModel dx="1434" dy="791" grid="1" gridSize="10" guides="1" tooltips="1" connect="1" arrows="1" fold="1" page="1" pageScale="1" pageWidth="827" pageHeight="1169" math="0" shadow="0">
      <root>
        <mxCell id="0" />
        <mxCell id="1" parent="0" />
        <mxCell id="jR2HOFibQMmsSOz2MYRR-338" value="Parallel&lt;br&gt;Processing" style="rounded=1;whiteSpace=wrap;html=1;fontStyle=0;verticalAlign=middle;strokeColor=#d79b00;fillColor=#ffe6cc;fontSize=16;opacity=50;align=right;spacingRight=10;" vertex="1" parent="1">
          <mxGeometry x="893" y="262" width="350" height="60" as="geometry" />
        </mxCell>
        <mxCell id="jR2HOFibQMmsSOz2MYRR-339" value="" style="sketch=0;outlineConnect=0;fillColor=#0050ef;strokeColor=#001DBC;dashed=0;verticalLabelPosition=bottom;verticalAlign=top;align=center;html=1;fontSize=12;fontStyle=0;aspect=fixed;pointerEvents=1;shape=mxgraph.aws4.container_registry_image;fontColor=#ffffff;opacity=50;" vertex="1" parent="1">
          <mxGeometry x="483" y="2" width="320" height="320" as="geometry" />
        </mxCell>
        <mxCell id="jR2HOFibQMmsSOz2MYRR-340" value="" style="rounded=0;whiteSpace=wrap;html=1;fillColor=none;strokeColor=none;" vertex="1" parent="1">
          <mxGeometry width="40" height="40" as="geometry" />
        </mxCell>
        <mxCell id="jR2HOFibQMmsSOz2MYRR-341" value="" style="rounded=0;whiteSpace=wrap;html=1;fillColor=none;strokeColor=none;" vertex="1" parent="1">
          <mxGeometry x="1600" width="40" height="40" as="geometry" />
        </mxCell>
        <mxCell id="jR2HOFibQMmsSOz2MYRR-342" value="" style="whiteSpace=wrap;html=1;aspect=fixed;opacity=50;fillColor=none;" vertex="1" parent="1">
          <mxGeometry x="483" y="2" width="20" height="20" as="geometry" />
        </mxCell>
        <mxCell id="jR2HOFibQMmsSOz2MYRR-343" value="" style="whiteSpace=wrap;html=1;aspect=fixed;opacity=50;fillColor=none;" vertex="1" parent="1">
          <mxGeometry x="483" y="22" width="20" height="20" as="geometry" />
        </mxCell>
        <mxCell id="jR2HOFibQMmsSOz2MYRR-344" value="" style="whiteSpace=wrap;html=1;aspect=fixed;opacity=50;fillColor=none;" vertex="1" parent="1">
          <mxGeometry x="483" y="42" width="20" height="20" as="geometry" />
        </mxCell>
        <mxCell id="jR2HOFibQMmsSOz2MYRR-345" value="" style="whiteSpace=wrap;html=1;aspect=fixed;opacity=50;fillColor=none;" vertex="1" parent="1">
          <mxGeometry x="483" y="62" width="20" height="20" as="geometry" />
        </mxCell>
        <mxCell id="jR2HOFibQMmsSOz2MYRR-346" value="" style="whiteSpace=wrap;html=1;aspect=fixed;opacity=50;fillColor=none;" vertex="1" parent="1">
          <mxGeometry x="503" y="2" width="20" height="20" as="geometry" />
        </mxCell>
        <mxCell id="jR2HOFibQMmsSOz2MYRR-347" value="" style="whiteSpace=wrap;html=1;aspect=fixed;opacity=50;fillColor=none;" vertex="1" parent="1">
          <mxGeometry x="503" y="22" width="20" height="20" as="geometry" />
        </mxCell>
        <mxCell id="jR2HOFibQMmsSOz2MYRR-348" value="" style="whiteSpace=wrap;html=1;aspect=fixed;opacity=50;fillColor=none;" vertex="1" parent="1">
          <mxGeometry x="503" y="42" width="20" height="20" as="geometry" />
        </mxCell>
        <mxCell id="jR2HOFibQMmsSOz2MYRR-349" value="" style="whiteSpace=wrap;html=1;aspect=fixed;opacity=50;fillColor=none;" vertex="1" parent="1">
          <mxGeometry x="503" y="62" width="20" height="20" as="geometry" />
        </mxCell>
        <mxCell id="jR2HOFibQMmsSOz2MYRR-350" value="" style="whiteSpace=wrap;html=1;aspect=fixed;opacity=50;fillColor=none;" vertex="1" parent="1">
          <mxGeometry x="523" y="2" width="20" height="20" as="geometry" />
        </mxCell>
        <mxCell id="jR2HOFibQMmsSOz2MYRR-351" value="" style="whiteSpace=wrap;html=1;aspect=fixed;opacity=50;fillColor=none;" vertex="1" parent="1">
          <mxGeometry x="523" y="22" width="20" height="20" as="geometry" />
        </mxCell>
        <mxCell id="jR2HOFibQMmsSOz2MYRR-352" value="" style="whiteSpace=wrap;html=1;aspect=fixed;opacity=50;fillColor=none;" vertex="1" parent="1">
          <mxGeometry x="523" y="42" width="20" height="20" as="geometry" />
        </mxCell>
        <mxCell id="jR2HOFibQMmsSOz2MYRR-353" value="" style="whiteSpace=wrap;html=1;aspect=fixed;opacity=50;fillColor=none;" vertex="1" parent="1">
          <mxGeometry x="523" y="62" width="20" height="20" as="geometry" />
        </mxCell>
        <mxCell id="jR2HOFibQMmsSOz2MYRR-354" value="" style="whiteSpace=wrap;html=1;aspect=fixed;opacity=50;fillColor=none;" vertex="1" parent="1">
          <mxGeometry x="543" y="2" width="20" height="20" as="geometry" />
        </mxCell>
        <mxCell id="jR2HOFibQMmsSOz2MYRR-355" value="" style="whiteSpace=wrap;html=1;aspect=fixed;opacity=50;fillColor=none;" vertex="1" parent="1">
          <mxGeometry x="543" y="22" width="20" height="20" as="geometry" />
        </mxCell>
        <mxCell id="jR2HOFibQMmsSOz2MYRR-356" value="" style="whiteSpace=wrap;html=1;aspect=fixed;opacity=50;fillColor=none;" vertex="1" parent="1">
          <mxGeometry x="543" y="42" width="20" height="20" as="geometry" />
        </mxCell>
        <mxCell id="jR2HOFibQMmsSOz2MYRR-357" value="" style="whiteSpace=wrap;html=1;aspect=fixed;opacity=50;fillColor=none;" vertex="1" parent="1">
          <mxGeometry x="543" y="62" width="20" height="20" as="geometry" />
        </mxCell>
        <mxCell id="jR2HOFibQMmsSOz2MYRR-358" value="" style="whiteSpace=wrap;html=1;aspect=fixed;fillColor=#dae8fc;strokeColor=#6c8ebf;" vertex="1" parent="1">
          <mxGeometry x="963" y="162" width="20" height="20" as="geometry" />
        </mxCell>
        <mxCell id="jR2HOFibQMmsSOz2MYRR-359" value="" style="whiteSpace=wrap;html=1;aspect=fixed;opacity=50;fillColor=none;" vertex="1" parent="1">
          <mxGeometry x="963" y="182" width="20" height="20" as="geometry" />
        </mxCell>
        <mxCell id="jR2HOFibQMmsSOz2MYRR-360" value="" style="whiteSpace=wrap;html=1;aspect=fixed;opacity=50;fillColor=none;" vertex="1" parent="1">
          <mxGeometry x="963" y="202" width="20" height="20" as="geometry" />
        </mxCell>
        <mxCell id="jR2HOFibQMmsSOz2MYRR-361" value="" style="whiteSpace=wrap;html=1;aspect=fixed;opacity=50;fillColor=none;" vertex="1" parent="1">
          <mxGeometry x="963" y="222" width="20" height="20" as="geometry" />
        </mxCell>
        <mxCell id="jR2HOFibQMmsSOz2MYRR-362" value="" style="whiteSpace=wrap;html=1;aspect=fixed;opacity=50;fillColor=none;" vertex="1" parent="1">
          <mxGeometry x="983" y="162" width="20" height="20" as="geometry" />
        </mxCell>
        <mxCell id="jR2HOFibQMmsSOz2MYRR-363" value="" style="whiteSpace=wrap;html=1;aspect=fixed;opacity=50;fillColor=none;" vertex="1" parent="1">
          <mxGeometry x="983" y="182" width="20" height="20" as="geometry" />
        </mxCell>
        <mxCell id="jR2HOFibQMmsSOz2MYRR-364" value="" style="whiteSpace=wrap;html=1;aspect=fixed;opacity=50;fillColor=none;" vertex="1" parent="1">
          <mxGeometry x="983" y="202" width="20" height="20" as="geometry" />
        </mxCell>
        <mxCell id="jR2HOFibQMmsSOz2MYRR-365" value="" style="whiteSpace=wrap;html=1;aspect=fixed;opacity=50;fillColor=none;" vertex="1" parent="1">
          <mxGeometry x="983" y="222" width="20" height="20" as="geometry" />
        </mxCell>
        <mxCell id="jR2HOFibQMmsSOz2MYRR-366" value="" style="whiteSpace=wrap;html=1;aspect=fixed;opacity=50;fillColor=none;" vertex="1" parent="1">
          <mxGeometry x="1003" y="162" width="20" height="20" as="geometry" />
        </mxCell>
        <mxCell id="jR2HOFibQMmsSOz2MYRR-367" value="" style="whiteSpace=wrap;html=1;aspect=fixed;opacity=50;fillColor=none;" vertex="1" parent="1">
          <mxGeometry x="1003" y="182" width="20" height="20" as="geometry" />
        </mxCell>
        <mxCell id="jR2HOFibQMmsSOz2MYRR-368" value="" style="whiteSpace=wrap;html=1;aspect=fixed;opacity=50;fillColor=none;" vertex="1" parent="1">
          <mxGeometry x="1003" y="202" width="20" height="20" as="geometry" />
        </mxCell>
        <mxCell id="jR2HOFibQMmsSOz2MYRR-369" value="" style="whiteSpace=wrap;html=1;aspect=fixed;opacity=50;fillColor=none;" vertex="1" parent="1">
          <mxGeometry x="1003" y="222" width="20" height="20" as="geometry" />
        </mxCell>
        <mxCell id="jR2HOFibQMmsSOz2MYRR-370" value="" style="whiteSpace=wrap;html=1;aspect=fixed;opacity=50;fillColor=none;" vertex="1" parent="1">
          <mxGeometry x="1023" y="162" width="20" height="20" as="geometry" />
        </mxCell>
        <mxCell id="jR2HOFibQMmsSOz2MYRR-371" value="" style="whiteSpace=wrap;html=1;aspect=fixed;opacity=50;fillColor=none;" vertex="1" parent="1">
          <mxGeometry x="1023" y="182" width="20" height="20" as="geometry" />
        </mxCell>
        <mxCell id="jR2HOFibQMmsSOz2MYRR-372" value="" style="whiteSpace=wrap;html=1;aspect=fixed;opacity=50;fillColor=none;" vertex="1" parent="1">
          <mxGeometry x="1023" y="202" width="20" height="20" as="geometry" />
        </mxCell>
        <mxCell id="jR2HOFibQMmsSOz2MYRR-373" value="" style="whiteSpace=wrap;html=1;aspect=fixed;opacity=50;fillColor=none;" vertex="1" parent="1">
          <mxGeometry x="1023" y="222" width="20" height="20" as="geometry" />
        </mxCell>
        <mxCell id="jR2HOFibQMmsSOz2MYRR-374" value="" style="whiteSpace=wrap;html=1;aspect=fixed;opacity=50;fillColor=none;" vertex="1" parent="1">
          <mxGeometry x="563" y="2" width="20" height="20" as="geometry" />
        </mxCell>
        <mxCell id="jR2HOFibQMmsSOz2MYRR-375" value="" style="whiteSpace=wrap;html=1;aspect=fixed;opacity=50;fillColor=none;" vertex="1" parent="1">
          <mxGeometry x="563" y="22" width="20" height="20" as="geometry" />
        </mxCell>
        <mxCell id="jR2HOFibQMmsSOz2MYRR-376" value="" style="whiteSpace=wrap;html=1;aspect=fixed;opacity=50;fillColor=none;" vertex="1" parent="1">
          <mxGeometry x="563" y="42" width="20" height="20" as="geometry" />
        </mxCell>
        <mxCell id="jR2HOFibQMmsSOz2MYRR-377" value="" style="whiteSpace=wrap;html=1;aspect=fixed;opacity=50;fillColor=none;" vertex="1" parent="1">
          <mxGeometry x="563" y="62" width="20" height="20" as="geometry" />
        </mxCell>
        <mxCell id="jR2HOFibQMmsSOz2MYRR-378" value="" style="whiteSpace=wrap;html=1;aspect=fixed;opacity=50;fillColor=none;" vertex="1" parent="1">
          <mxGeometry x="583" y="2" width="20" height="20" as="geometry" />
        </mxCell>
        <mxCell id="jR2HOFibQMmsSOz2MYRR-379" value="" style="whiteSpace=wrap;html=1;aspect=fixed;opacity=50;fillColor=none;" vertex="1" parent="1">
          <mxGeometry x="583" y="22" width="20" height="20" as="geometry" />
        </mxCell>
        <mxCell id="jR2HOFibQMmsSOz2MYRR-380" value="" style="whiteSpace=wrap;html=1;aspect=fixed;opacity=50;fillColor=none;" vertex="1" parent="1">
          <mxGeometry x="583" y="42" width="20" height="20" as="geometry" />
        </mxCell>
        <mxCell id="jR2HOFibQMmsSOz2MYRR-381" value="" style="whiteSpace=wrap;html=1;aspect=fixed;opacity=50;fillColor=none;" vertex="1" parent="1">
          <mxGeometry x="583" y="62" width="20" height="20" as="geometry" />
        </mxCell>
        <mxCell id="jR2HOFibQMmsSOz2MYRR-382" value="" style="whiteSpace=wrap;html=1;aspect=fixed;opacity=50;fillColor=none;" vertex="1" parent="1">
          <mxGeometry x="603" y="2" width="20" height="20" as="geometry" />
        </mxCell>
        <mxCell id="jR2HOFibQMmsSOz2MYRR-383" value="" style="whiteSpace=wrap;html=1;aspect=fixed;opacity=50;fillColor=none;" vertex="1" parent="1">
          <mxGeometry x="603" y="22" width="20" height="20" as="geometry" />
        </mxCell>
        <mxCell id="jR2HOFibQMmsSOz2MYRR-384" value="" style="whiteSpace=wrap;html=1;aspect=fixed;opacity=50;fillColor=none;" vertex="1" parent="1">
          <mxGeometry x="603" y="42" width="20" height="20" as="geometry" />
        </mxCell>
        <mxCell id="jR2HOFibQMmsSOz2MYRR-385" value="" style="whiteSpace=wrap;html=1;aspect=fixed;opacity=50;fillColor=none;" vertex="1" parent="1">
          <mxGeometry x="603" y="62" width="20" height="20" as="geometry" />
        </mxCell>
        <mxCell id="jR2HOFibQMmsSOz2MYRR-386" value="" style="whiteSpace=wrap;html=1;aspect=fixed;opacity=50;fillColor=none;" vertex="1" parent="1">
          <mxGeometry x="623" y="2" width="20" height="20" as="geometry" />
        </mxCell>
        <mxCell id="jR2HOFibQMmsSOz2MYRR-387" value="" style="whiteSpace=wrap;html=1;aspect=fixed;opacity=50;fillColor=none;" vertex="1" parent="1">
          <mxGeometry x="623" y="22" width="20" height="20" as="geometry" />
        </mxCell>
        <mxCell id="jR2HOFibQMmsSOz2MYRR-388" value="" style="whiteSpace=wrap;html=1;aspect=fixed;opacity=50;fillColor=none;" vertex="1" parent="1">
          <mxGeometry x="623" y="42" width="20" height="20" as="geometry" />
        </mxCell>
        <mxCell id="jR2HOFibQMmsSOz2MYRR-389" value="" style="whiteSpace=wrap;html=1;aspect=fixed;opacity=50;fillColor=none;" vertex="1" parent="1">
          <mxGeometry x="623" y="62" width="20" height="20" as="geometry" />
        </mxCell>
        <mxCell id="jR2HOFibQMmsSOz2MYRR-390" value="" style="whiteSpace=wrap;html=1;aspect=fixed;opacity=50;fillColor=none;" vertex="1" parent="1">
          <mxGeometry x="643" y="2" width="20" height="20" as="geometry" />
        </mxCell>
        <mxCell id="jR2HOFibQMmsSOz2MYRR-391" value="" style="whiteSpace=wrap;html=1;aspect=fixed;opacity=50;fillColor=none;" vertex="1" parent="1">
          <mxGeometry x="643" y="22" width="20" height="20" as="geometry" />
        </mxCell>
        <mxCell id="jR2HOFibQMmsSOz2MYRR-392" value="" style="whiteSpace=wrap;html=1;aspect=fixed;opacity=50;fillColor=none;" vertex="1" parent="1">
          <mxGeometry x="643" y="42" width="20" height="20" as="geometry" />
        </mxCell>
        <mxCell id="jR2HOFibQMmsSOz2MYRR-393" value="" style="whiteSpace=wrap;html=1;aspect=fixed;opacity=50;fillColor=none;" vertex="1" parent="1">
          <mxGeometry x="643" y="62" width="20" height="20" as="geometry" />
        </mxCell>
        <mxCell id="jR2HOFibQMmsSOz2MYRR-394" value="" style="whiteSpace=wrap;html=1;aspect=fixed;opacity=50;fillColor=none;" vertex="1" parent="1">
          <mxGeometry x="663" y="2" width="20" height="20" as="geometry" />
        </mxCell>
        <mxCell id="jR2HOFibQMmsSOz2MYRR-395" value="" style="whiteSpace=wrap;html=1;aspect=fixed;opacity=50;fillColor=none;" vertex="1" parent="1">
          <mxGeometry x="663" y="22" width="20" height="20" as="geometry" />
        </mxCell>
        <mxCell id="jR2HOFibQMmsSOz2MYRR-396" value="" style="whiteSpace=wrap;html=1;aspect=fixed;opacity=50;fillColor=none;" vertex="1" parent="1">
          <mxGeometry x="663" y="42" width="20" height="20" as="geometry" />
        </mxCell>
        <mxCell id="jR2HOFibQMmsSOz2MYRR-397" value="" style="whiteSpace=wrap;html=1;aspect=fixed;opacity=50;fillColor=none;" vertex="1" parent="1">
          <mxGeometry x="663" y="62" width="20" height="20" as="geometry" />
        </mxCell>
        <mxCell id="jR2HOFibQMmsSOz2MYRR-398" value="" style="whiteSpace=wrap;html=1;aspect=fixed;opacity=50;fillColor=none;" vertex="1" parent="1">
          <mxGeometry x="683" y="2" width="20" height="20" as="geometry" />
        </mxCell>
        <mxCell id="jR2HOFibQMmsSOz2MYRR-399" value="" style="whiteSpace=wrap;html=1;aspect=fixed;opacity=50;fillColor=none;" vertex="1" parent="1">
          <mxGeometry x="683" y="22" width="20" height="20" as="geometry" />
        </mxCell>
        <mxCell id="jR2HOFibQMmsSOz2MYRR-400" value="" style="whiteSpace=wrap;html=1;aspect=fixed;opacity=50;fillColor=none;" vertex="1" parent="1">
          <mxGeometry x="683" y="42" width="20" height="20" as="geometry" />
        </mxCell>
        <mxCell id="jR2HOFibQMmsSOz2MYRR-401" value="" style="whiteSpace=wrap;html=1;aspect=fixed;opacity=50;fillColor=none;" vertex="1" parent="1">
          <mxGeometry x="683" y="62" width="20" height="20" as="geometry" />
        </mxCell>
        <mxCell id="jR2HOFibQMmsSOz2MYRR-402" value="" style="whiteSpace=wrap;html=1;aspect=fixed;opacity=50;fillColor=none;" vertex="1" parent="1">
          <mxGeometry x="703" y="2" width="20" height="20" as="geometry" />
        </mxCell>
        <mxCell id="jR2HOFibQMmsSOz2MYRR-403" value="" style="whiteSpace=wrap;html=1;aspect=fixed;opacity=50;fillColor=none;" vertex="1" parent="1">
          <mxGeometry x="703" y="22" width="20" height="20" as="geometry" />
        </mxCell>
        <mxCell id="jR2HOFibQMmsSOz2MYRR-404" value="" style="whiteSpace=wrap;html=1;aspect=fixed;opacity=50;fillColor=none;" vertex="1" parent="1">
          <mxGeometry x="703" y="42" width="20" height="20" as="geometry" />
        </mxCell>
        <mxCell id="jR2HOFibQMmsSOz2MYRR-405" value="" style="whiteSpace=wrap;html=1;aspect=fixed;opacity=50;fillColor=none;" vertex="1" parent="1">
          <mxGeometry x="703" y="62" width="20" height="20" as="geometry" />
        </mxCell>
        <mxCell id="jR2HOFibQMmsSOz2MYRR-406" value="" style="whiteSpace=wrap;html=1;aspect=fixed;opacity=50;fillColor=none;" vertex="1" parent="1">
          <mxGeometry x="723" y="2" width="20" height="20" as="geometry" />
        </mxCell>
        <mxCell id="jR2HOFibQMmsSOz2MYRR-407" value="" style="whiteSpace=wrap;html=1;aspect=fixed;opacity=50;fillColor=none;" vertex="1" parent="1">
          <mxGeometry x="723" y="22" width="20" height="20" as="geometry" />
        </mxCell>
        <mxCell id="jR2HOFibQMmsSOz2MYRR-408" value="" style="whiteSpace=wrap;html=1;aspect=fixed;opacity=50;fillColor=none;" vertex="1" parent="1">
          <mxGeometry x="723" y="42" width="20" height="20" as="geometry" />
        </mxCell>
        <mxCell id="jR2HOFibQMmsSOz2MYRR-409" value="" style="whiteSpace=wrap;html=1;aspect=fixed;opacity=50;fillColor=none;" vertex="1" parent="1">
          <mxGeometry x="723" y="62" width="20" height="20" as="geometry" />
        </mxCell>
        <mxCell id="jR2HOFibQMmsSOz2MYRR-410" value="" style="whiteSpace=wrap;html=1;aspect=fixed;opacity=50;fillColor=none;" vertex="1" parent="1">
          <mxGeometry x="743" y="2" width="20" height="20" as="geometry" />
        </mxCell>
        <mxCell id="jR2HOFibQMmsSOz2MYRR-411" value="" style="whiteSpace=wrap;html=1;aspect=fixed;opacity=50;fillColor=none;" vertex="1" parent="1">
          <mxGeometry x="743" y="22" width="20" height="20" as="geometry" />
        </mxCell>
        <mxCell id="jR2HOFibQMmsSOz2MYRR-412" value="" style="whiteSpace=wrap;html=1;aspect=fixed;opacity=50;fillColor=none;" vertex="1" parent="1">
          <mxGeometry x="743" y="42" width="20" height="20" as="geometry" />
        </mxCell>
        <mxCell id="jR2HOFibQMmsSOz2MYRR-413" value="" style="whiteSpace=wrap;html=1;aspect=fixed;opacity=50;fillColor=none;" vertex="1" parent="1">
          <mxGeometry x="743" y="62" width="20" height="20" as="geometry" />
        </mxCell>
        <mxCell id="jR2HOFibQMmsSOz2MYRR-414" value="" style="whiteSpace=wrap;html=1;aspect=fixed;opacity=50;fillColor=none;" vertex="1" parent="1">
          <mxGeometry x="763" y="2" width="20" height="20" as="geometry" />
        </mxCell>
        <mxCell id="jR2HOFibQMmsSOz2MYRR-415" value="" style="whiteSpace=wrap;html=1;aspect=fixed;opacity=50;fillColor=none;" vertex="1" parent="1">
          <mxGeometry x="763" y="22" width="20" height="20" as="geometry" />
        </mxCell>
        <mxCell id="jR2HOFibQMmsSOz2MYRR-416" value="" style="whiteSpace=wrap;html=1;aspect=fixed;opacity=50;fillColor=none;" vertex="1" parent="1">
          <mxGeometry x="763" y="42" width="20" height="20" as="geometry" />
        </mxCell>
        <mxCell id="jR2HOFibQMmsSOz2MYRR-417" value="" style="whiteSpace=wrap;html=1;aspect=fixed;opacity=50;fillColor=none;" vertex="1" parent="1">
          <mxGeometry x="763" y="62" width="20" height="20" as="geometry" />
        </mxCell>
        <mxCell id="jR2HOFibQMmsSOz2MYRR-418" value="" style="whiteSpace=wrap;html=1;aspect=fixed;opacity=50;fillColor=none;" vertex="1" parent="1">
          <mxGeometry x="783" y="2" width="20" height="20" as="geometry" />
        </mxCell>
        <mxCell id="jR2HOFibQMmsSOz2MYRR-419" value="" style="whiteSpace=wrap;html=1;aspect=fixed;opacity=50;fillColor=none;" vertex="1" parent="1">
          <mxGeometry x="783" y="22" width="20" height="20" as="geometry" />
        </mxCell>
        <mxCell id="jR2HOFibQMmsSOz2MYRR-420" value="" style="whiteSpace=wrap;html=1;aspect=fixed;opacity=50;fillColor=none;" vertex="1" parent="1">
          <mxGeometry x="783" y="42" width="20" height="20" as="geometry" />
        </mxCell>
        <mxCell id="jR2HOFibQMmsSOz2MYRR-421" value="" style="whiteSpace=wrap;html=1;aspect=fixed;opacity=50;fillColor=none;" vertex="1" parent="1">
          <mxGeometry x="783" y="62" width="20" height="20" as="geometry" />
        </mxCell>
        <mxCell id="jR2HOFibQMmsSOz2MYRR-422" value="" style="whiteSpace=wrap;html=1;aspect=fixed;opacity=50;fillColor=none;" vertex="1" parent="1">
          <mxGeometry x="483" y="82" width="20" height="20" as="geometry" />
        </mxCell>
        <mxCell id="jR2HOFibQMmsSOz2MYRR-423" value="" style="whiteSpace=wrap;html=1;aspect=fixed;opacity=50;fillColor=none;" vertex="1" parent="1">
          <mxGeometry x="483" y="102" width="20" height="20" as="geometry" />
        </mxCell>
        <mxCell id="jR2HOFibQMmsSOz2MYRR-424" value="" style="whiteSpace=wrap;html=1;aspect=fixed;opacity=50;fillColor=none;" vertex="1" parent="1">
          <mxGeometry x="483" y="122" width="20" height="20" as="geometry" />
        </mxCell>
        <mxCell id="jR2HOFibQMmsSOz2MYRR-425" value="" style="whiteSpace=wrap;html=1;aspect=fixed;opacity=50;fillColor=none;" vertex="1" parent="1">
          <mxGeometry x="483" y="142" width="20" height="20" as="geometry" />
        </mxCell>
        <mxCell id="jR2HOFibQMmsSOz2MYRR-426" value="" style="whiteSpace=wrap;html=1;aspect=fixed;opacity=50;fillColor=none;" vertex="1" parent="1">
          <mxGeometry x="503" y="82" width="20" height="20" as="geometry" />
        </mxCell>
        <mxCell id="jR2HOFibQMmsSOz2MYRR-427" value="" style="whiteSpace=wrap;html=1;aspect=fixed;opacity=50;fillColor=none;" vertex="1" parent="1">
          <mxGeometry x="503" y="102" width="20" height="20" as="geometry" />
        </mxCell>
        <mxCell id="jR2HOFibQMmsSOz2MYRR-428" value="" style="whiteSpace=wrap;html=1;aspect=fixed;opacity=50;fillColor=none;" vertex="1" parent="1">
          <mxGeometry x="503" y="122" width="20" height="20" as="geometry" />
        </mxCell>
        <mxCell id="jR2HOFibQMmsSOz2MYRR-429" value="" style="whiteSpace=wrap;html=1;aspect=fixed;opacity=50;fillColor=none;" vertex="1" parent="1">
          <mxGeometry x="503" y="142" width="20" height="20" as="geometry" />
        </mxCell>
        <mxCell id="jR2HOFibQMmsSOz2MYRR-430" value="" style="whiteSpace=wrap;html=1;aspect=fixed;opacity=50;fillColor=none;" vertex="1" parent="1">
          <mxGeometry x="523" y="82" width="20" height="20" as="geometry" />
        </mxCell>
        <mxCell id="jR2HOFibQMmsSOz2MYRR-431" value="" style="whiteSpace=wrap;html=1;aspect=fixed;opacity=50;fillColor=none;" vertex="1" parent="1">
          <mxGeometry x="523" y="102" width="20" height="20" as="geometry" />
        </mxCell>
        <mxCell id="jR2HOFibQMmsSOz2MYRR-432" value="" style="whiteSpace=wrap;html=1;aspect=fixed;opacity=50;fillColor=none;" vertex="1" parent="1">
          <mxGeometry x="523" y="122" width="20" height="20" as="geometry" />
        </mxCell>
        <mxCell id="jR2HOFibQMmsSOz2MYRR-433" value="" style="whiteSpace=wrap;html=1;aspect=fixed;opacity=50;fillColor=none;" vertex="1" parent="1">
          <mxGeometry x="523" y="142" width="20" height="20" as="geometry" />
        </mxCell>
        <mxCell id="jR2HOFibQMmsSOz2MYRR-434" value="" style="whiteSpace=wrap;html=1;aspect=fixed;opacity=50;fillColor=none;" vertex="1" parent="1">
          <mxGeometry x="543" y="82" width="20" height="20" as="geometry" />
        </mxCell>
        <mxCell id="jR2HOFibQMmsSOz2MYRR-435" value="" style="whiteSpace=wrap;html=1;aspect=fixed;opacity=50;fillColor=none;" vertex="1" parent="1">
          <mxGeometry x="543" y="102" width="20" height="20" as="geometry" />
        </mxCell>
        <mxCell id="jR2HOFibQMmsSOz2MYRR-436" value="" style="whiteSpace=wrap;html=1;aspect=fixed;opacity=50;fillColor=none;" vertex="1" parent="1">
          <mxGeometry x="543" y="122" width="20" height="20" as="geometry" />
        </mxCell>
        <mxCell id="jR2HOFibQMmsSOz2MYRR-437" value="" style="whiteSpace=wrap;html=1;aspect=fixed;opacity=50;fillColor=none;" vertex="1" parent="1">
          <mxGeometry x="543" y="142" width="20" height="20" as="geometry" />
        </mxCell>
        <mxCell id="jR2HOFibQMmsSOz2MYRR-438" value="" style="whiteSpace=wrap;html=1;aspect=fixed;opacity=50;fillColor=none;" vertex="1" parent="1">
          <mxGeometry x="563" y="82" width="20" height="20" as="geometry" />
        </mxCell>
        <mxCell id="jR2HOFibQMmsSOz2MYRR-439" value="" style="whiteSpace=wrap;html=1;aspect=fixed;opacity=50;fillColor=none;" vertex="1" parent="1">
          <mxGeometry x="563" y="102" width="20" height="20" as="geometry" />
        </mxCell>
        <mxCell id="jR2HOFibQMmsSOz2MYRR-440" value="" style="whiteSpace=wrap;html=1;aspect=fixed;opacity=50;fillColor=none;" vertex="1" parent="1">
          <mxGeometry x="563" y="122" width="20" height="20" as="geometry" />
        </mxCell>
        <mxCell id="jR2HOFibQMmsSOz2MYRR-441" value="" style="whiteSpace=wrap;html=1;aspect=fixed;opacity=50;fillColor=none;" vertex="1" parent="1">
          <mxGeometry x="563" y="142" width="20" height="20" as="geometry" />
        </mxCell>
        <mxCell id="jR2HOFibQMmsSOz2MYRR-442" value="" style="whiteSpace=wrap;html=1;aspect=fixed;opacity=50;fillColor=none;" vertex="1" parent="1">
          <mxGeometry x="583" y="82" width="20" height="20" as="geometry" />
        </mxCell>
        <mxCell id="jR2HOFibQMmsSOz2MYRR-443" value="" style="whiteSpace=wrap;html=1;aspect=fixed;opacity=50;fillColor=none;" vertex="1" parent="1">
          <mxGeometry x="583" y="102" width="20" height="20" as="geometry" />
        </mxCell>
        <mxCell id="jR2HOFibQMmsSOz2MYRR-444" value="" style="whiteSpace=wrap;html=1;aspect=fixed;opacity=50;fillColor=none;" vertex="1" parent="1">
          <mxGeometry x="583" y="122" width="20" height="20" as="geometry" />
        </mxCell>
        <mxCell id="jR2HOFibQMmsSOz2MYRR-445" value="" style="whiteSpace=wrap;html=1;aspect=fixed;opacity=50;fillColor=none;" vertex="1" parent="1">
          <mxGeometry x="583" y="142" width="20" height="20" as="geometry" />
        </mxCell>
        <mxCell id="jR2HOFibQMmsSOz2MYRR-446" value="" style="whiteSpace=wrap;html=1;aspect=fixed;opacity=50;fillColor=none;" vertex="1" parent="1">
          <mxGeometry x="603" y="82" width="20" height="20" as="geometry" />
        </mxCell>
        <mxCell id="jR2HOFibQMmsSOz2MYRR-447" value="" style="whiteSpace=wrap;html=1;aspect=fixed;opacity=50;fillColor=none;" vertex="1" parent="1">
          <mxGeometry x="603" y="102" width="20" height="20" as="geometry" />
        </mxCell>
        <mxCell id="jR2HOFibQMmsSOz2MYRR-448" value="" style="whiteSpace=wrap;html=1;aspect=fixed;opacity=50;fillColor=none;" vertex="1" parent="1">
          <mxGeometry x="603" y="122" width="20" height="20" as="geometry" />
        </mxCell>
        <mxCell id="jR2HOFibQMmsSOz2MYRR-449" value="" style="whiteSpace=wrap;html=1;aspect=fixed;opacity=50;fillColor=none;" vertex="1" parent="1">
          <mxGeometry x="603" y="142" width="20" height="20" as="geometry" />
        </mxCell>
        <mxCell id="jR2HOFibQMmsSOz2MYRR-450" value="" style="whiteSpace=wrap;html=1;aspect=fixed;opacity=50;fillColor=none;" vertex="1" parent="1">
          <mxGeometry x="623" y="82" width="20" height="20" as="geometry" />
        </mxCell>
        <mxCell id="jR2HOFibQMmsSOz2MYRR-451" value="" style="whiteSpace=wrap;html=1;aspect=fixed;opacity=50;fillColor=none;" vertex="1" parent="1">
          <mxGeometry x="623" y="102" width="20" height="20" as="geometry" />
        </mxCell>
        <mxCell id="jR2HOFibQMmsSOz2MYRR-452" value="" style="whiteSpace=wrap;html=1;aspect=fixed;opacity=50;fillColor=none;" vertex="1" parent="1">
          <mxGeometry x="623" y="122" width="20" height="20" as="geometry" />
        </mxCell>
        <mxCell id="jR2HOFibQMmsSOz2MYRR-453" value="" style="whiteSpace=wrap;html=1;aspect=fixed;opacity=50;fillColor=none;" vertex="1" parent="1">
          <mxGeometry x="623" y="142" width="20" height="20" as="geometry" />
        </mxCell>
        <mxCell id="jR2HOFibQMmsSOz2MYRR-454" value="" style="whiteSpace=wrap;html=1;aspect=fixed;opacity=50;fillColor=none;" vertex="1" parent="1">
          <mxGeometry x="643" y="82" width="20" height="20" as="geometry" />
        </mxCell>
        <mxCell id="jR2HOFibQMmsSOz2MYRR-455" value="" style="whiteSpace=wrap;html=1;aspect=fixed;opacity=50;fillColor=none;" vertex="1" parent="1">
          <mxGeometry x="643" y="102" width="20" height="20" as="geometry" />
        </mxCell>
        <mxCell id="jR2HOFibQMmsSOz2MYRR-456" value="" style="whiteSpace=wrap;html=1;aspect=fixed;opacity=50;fillColor=none;" vertex="1" parent="1">
          <mxGeometry x="643" y="122" width="20" height="20" as="geometry" />
        </mxCell>
        <mxCell id="jR2HOFibQMmsSOz2MYRR-457" value="" style="whiteSpace=wrap;html=1;aspect=fixed;opacity=50;fillColor=none;" vertex="1" parent="1">
          <mxGeometry x="643" y="142" width="20" height="20" as="geometry" />
        </mxCell>
        <mxCell id="jR2HOFibQMmsSOz2MYRR-458" value="" style="whiteSpace=wrap;html=1;aspect=fixed;opacity=50;fillColor=none;" vertex="1" parent="1">
          <mxGeometry x="663" y="82" width="20" height="20" as="geometry" />
        </mxCell>
        <mxCell id="jR2HOFibQMmsSOz2MYRR-459" value="" style="whiteSpace=wrap;html=1;aspect=fixed;opacity=50;fillColor=none;" vertex="1" parent="1">
          <mxGeometry x="663" y="102" width="20" height="20" as="geometry" />
        </mxCell>
        <mxCell id="jR2HOFibQMmsSOz2MYRR-460" value="" style="whiteSpace=wrap;html=1;aspect=fixed;opacity=50;fillColor=none;" vertex="1" parent="1">
          <mxGeometry x="663" y="122" width="20" height="20" as="geometry" />
        </mxCell>
        <mxCell id="jR2HOFibQMmsSOz2MYRR-461" value="" style="whiteSpace=wrap;html=1;aspect=fixed;opacity=50;fillColor=none;" vertex="1" parent="1">
          <mxGeometry x="663" y="142" width="20" height="20" as="geometry" />
        </mxCell>
        <mxCell id="jR2HOFibQMmsSOz2MYRR-462" value="" style="whiteSpace=wrap;html=1;aspect=fixed;opacity=50;fillColor=none;" vertex="1" parent="1">
          <mxGeometry x="683" y="82" width="20" height="20" as="geometry" />
        </mxCell>
        <mxCell id="jR2HOFibQMmsSOz2MYRR-463" value="" style="whiteSpace=wrap;html=1;aspect=fixed;opacity=50;fillColor=none;" vertex="1" parent="1">
          <mxGeometry x="683" y="102" width="20" height="20" as="geometry" />
        </mxCell>
        <mxCell id="jR2HOFibQMmsSOz2MYRR-464" value="" style="whiteSpace=wrap;html=1;aspect=fixed;opacity=50;fillColor=none;" vertex="1" parent="1">
          <mxGeometry x="683" y="122" width="20" height="20" as="geometry" />
        </mxCell>
        <mxCell id="jR2HOFibQMmsSOz2MYRR-465" value="" style="whiteSpace=wrap;html=1;aspect=fixed;opacity=50;fillColor=none;" vertex="1" parent="1">
          <mxGeometry x="683" y="142" width="20" height="20" as="geometry" />
        </mxCell>
        <mxCell id="jR2HOFibQMmsSOz2MYRR-466" value="" style="whiteSpace=wrap;html=1;aspect=fixed;opacity=50;fillColor=none;" vertex="1" parent="1">
          <mxGeometry x="703" y="82" width="20" height="20" as="geometry" />
        </mxCell>
        <mxCell id="jR2HOFibQMmsSOz2MYRR-467" value="" style="whiteSpace=wrap;html=1;aspect=fixed;opacity=50;fillColor=none;" vertex="1" parent="1">
          <mxGeometry x="703" y="102" width="20" height="20" as="geometry" />
        </mxCell>
        <mxCell id="jR2HOFibQMmsSOz2MYRR-468" value="" style="whiteSpace=wrap;html=1;aspect=fixed;opacity=50;fillColor=none;" vertex="1" parent="1">
          <mxGeometry x="703" y="122" width="20" height="20" as="geometry" />
        </mxCell>
        <mxCell id="jR2HOFibQMmsSOz2MYRR-469" value="" style="whiteSpace=wrap;html=1;aspect=fixed;opacity=50;fillColor=none;" vertex="1" parent="1">
          <mxGeometry x="703" y="142" width="20" height="20" as="geometry" />
        </mxCell>
        <mxCell id="jR2HOFibQMmsSOz2MYRR-470" value="" style="whiteSpace=wrap;html=1;aspect=fixed;opacity=50;fillColor=none;" vertex="1" parent="1">
          <mxGeometry x="723" y="82" width="20" height="20" as="geometry" />
        </mxCell>
        <mxCell id="jR2HOFibQMmsSOz2MYRR-471" value="" style="whiteSpace=wrap;html=1;aspect=fixed;opacity=50;fillColor=none;" vertex="1" parent="1">
          <mxGeometry x="723" y="102" width="20" height="20" as="geometry" />
        </mxCell>
        <mxCell id="jR2HOFibQMmsSOz2MYRR-472" value="" style="whiteSpace=wrap;html=1;aspect=fixed;opacity=50;fillColor=none;" vertex="1" parent="1">
          <mxGeometry x="723" y="122" width="20" height="20" as="geometry" />
        </mxCell>
        <mxCell id="jR2HOFibQMmsSOz2MYRR-473" value="" style="whiteSpace=wrap;html=1;aspect=fixed;opacity=50;fillColor=none;" vertex="1" parent="1">
          <mxGeometry x="723" y="142" width="20" height="20" as="geometry" />
        </mxCell>
        <mxCell id="jR2HOFibQMmsSOz2MYRR-474" value="" style="whiteSpace=wrap;html=1;aspect=fixed;opacity=50;fillColor=none;" vertex="1" parent="1">
          <mxGeometry x="743" y="82" width="20" height="20" as="geometry" />
        </mxCell>
        <mxCell id="jR2HOFibQMmsSOz2MYRR-475" value="" style="whiteSpace=wrap;html=1;aspect=fixed;opacity=50;fillColor=none;" vertex="1" parent="1">
          <mxGeometry x="743" y="102" width="20" height="20" as="geometry" />
        </mxCell>
        <mxCell id="jR2HOFibQMmsSOz2MYRR-476" value="" style="whiteSpace=wrap;html=1;aspect=fixed;opacity=50;fillColor=none;" vertex="1" parent="1">
          <mxGeometry x="743" y="122" width="20" height="20" as="geometry" />
        </mxCell>
        <mxCell id="jR2HOFibQMmsSOz2MYRR-477" value="" style="whiteSpace=wrap;html=1;aspect=fixed;opacity=50;fillColor=none;" vertex="1" parent="1">
          <mxGeometry x="743" y="142" width="20" height="20" as="geometry" />
        </mxCell>
        <mxCell id="jR2HOFibQMmsSOz2MYRR-478" value="" style="whiteSpace=wrap;html=1;aspect=fixed;opacity=50;fillColor=none;" vertex="1" parent="1">
          <mxGeometry x="763" y="82" width="20" height="20" as="geometry" />
        </mxCell>
        <mxCell id="jR2HOFibQMmsSOz2MYRR-479" value="" style="whiteSpace=wrap;html=1;aspect=fixed;opacity=50;fillColor=none;" vertex="1" parent="1">
          <mxGeometry x="763" y="102" width="20" height="20" as="geometry" />
        </mxCell>
        <mxCell id="jR2HOFibQMmsSOz2MYRR-480" value="" style="whiteSpace=wrap;html=1;aspect=fixed;opacity=50;fillColor=none;" vertex="1" parent="1">
          <mxGeometry x="763" y="122" width="20" height="20" as="geometry" />
        </mxCell>
        <mxCell id="jR2HOFibQMmsSOz2MYRR-481" value="" style="whiteSpace=wrap;html=1;aspect=fixed;opacity=50;fillColor=none;" vertex="1" parent="1">
          <mxGeometry x="763" y="142" width="20" height="20" as="geometry" />
        </mxCell>
        <mxCell id="jR2HOFibQMmsSOz2MYRR-482" value="" style="whiteSpace=wrap;html=1;aspect=fixed;opacity=50;fillColor=none;" vertex="1" parent="1">
          <mxGeometry x="783" y="82" width="20" height="20" as="geometry" />
        </mxCell>
        <mxCell id="jR2HOFibQMmsSOz2MYRR-483" value="" style="whiteSpace=wrap;html=1;aspect=fixed;opacity=50;fillColor=none;" vertex="1" parent="1">
          <mxGeometry x="783" y="102" width="20" height="20" as="geometry" />
        </mxCell>
        <mxCell id="jR2HOFibQMmsSOz2MYRR-484" value="" style="whiteSpace=wrap;html=1;aspect=fixed;opacity=50;fillColor=none;" vertex="1" parent="1">
          <mxGeometry x="783" y="122" width="20" height="20" as="geometry" />
        </mxCell>
        <mxCell id="jR2HOFibQMmsSOz2MYRR-485" value="" style="whiteSpace=wrap;html=1;aspect=fixed;opacity=50;fillColor=none;" vertex="1" parent="1">
          <mxGeometry x="783" y="142" width="20" height="20" as="geometry" />
        </mxCell>
        <mxCell id="jR2HOFibQMmsSOz2MYRR-486" value="" style="whiteSpace=wrap;html=1;aspect=fixed;opacity=50;fillColor=none;" vertex="1" parent="1">
          <mxGeometry x="483" y="162" width="20" height="20" as="geometry" />
        </mxCell>
        <mxCell id="jR2HOFibQMmsSOz2MYRR-487" value="" style="whiteSpace=wrap;html=1;aspect=fixed;opacity=50;fillColor=none;" vertex="1" parent="1">
          <mxGeometry x="483" y="182" width="20" height="20" as="geometry" />
        </mxCell>
        <mxCell id="jR2HOFibQMmsSOz2MYRR-488" value="" style="whiteSpace=wrap;html=1;aspect=fixed;opacity=50;fillColor=none;" vertex="1" parent="1">
          <mxGeometry x="483" y="202" width="20" height="20" as="geometry" />
        </mxCell>
        <mxCell id="jR2HOFibQMmsSOz2MYRR-489" value="" style="whiteSpace=wrap;html=1;aspect=fixed;opacity=50;fillColor=none;" vertex="1" parent="1">
          <mxGeometry x="483" y="222" width="20" height="20" as="geometry" />
        </mxCell>
        <mxCell id="jR2HOFibQMmsSOz2MYRR-490" value="" style="whiteSpace=wrap;html=1;aspect=fixed;opacity=50;fillColor=none;" vertex="1" parent="1">
          <mxGeometry x="503" y="162" width="20" height="20" as="geometry" />
        </mxCell>
        <mxCell id="jR2HOFibQMmsSOz2MYRR-491" value="" style="whiteSpace=wrap;html=1;aspect=fixed;opacity=50;fillColor=none;" vertex="1" parent="1">
          <mxGeometry x="503" y="182" width="20" height="20" as="geometry" />
        </mxCell>
        <mxCell id="jR2HOFibQMmsSOz2MYRR-492" value="" style="whiteSpace=wrap;html=1;aspect=fixed;opacity=50;fillColor=none;" vertex="1" parent="1">
          <mxGeometry x="503" y="202" width="20" height="20" as="geometry" />
        </mxCell>
        <mxCell id="jR2HOFibQMmsSOz2MYRR-493" value="" style="whiteSpace=wrap;html=1;aspect=fixed;opacity=50;fillColor=none;" vertex="1" parent="1">
          <mxGeometry x="503" y="222" width="20" height="20" as="geometry" />
        </mxCell>
        <mxCell id="jR2HOFibQMmsSOz2MYRR-494" value="" style="whiteSpace=wrap;html=1;aspect=fixed;opacity=50;fillColor=none;" vertex="1" parent="1">
          <mxGeometry x="523" y="162" width="20" height="20" as="geometry" />
        </mxCell>
        <mxCell id="jR2HOFibQMmsSOz2MYRR-495" value="" style="whiteSpace=wrap;html=1;aspect=fixed;opacity=50;fillColor=none;" vertex="1" parent="1">
          <mxGeometry x="523" y="182" width="20" height="20" as="geometry" />
        </mxCell>
        <mxCell id="jR2HOFibQMmsSOz2MYRR-496" value="" style="whiteSpace=wrap;html=1;aspect=fixed;opacity=50;fillColor=none;" vertex="1" parent="1">
          <mxGeometry x="523" y="202" width="20" height="20" as="geometry" />
        </mxCell>
        <mxCell id="jR2HOFibQMmsSOz2MYRR-497" value="" style="whiteSpace=wrap;html=1;aspect=fixed;opacity=50;fillColor=none;" vertex="1" parent="1">
          <mxGeometry x="523" y="222" width="20" height="20" as="geometry" />
        </mxCell>
        <mxCell id="jR2HOFibQMmsSOz2MYRR-498" value="" style="whiteSpace=wrap;html=1;aspect=fixed;opacity=50;fillColor=none;" vertex="1" parent="1">
          <mxGeometry x="543" y="162" width="20" height="20" as="geometry" />
        </mxCell>
        <mxCell id="jR2HOFibQMmsSOz2MYRR-499" value="" style="whiteSpace=wrap;html=1;aspect=fixed;opacity=50;fillColor=none;" vertex="1" parent="1">
          <mxGeometry x="543" y="182" width="20" height="20" as="geometry" />
        </mxCell>
        <mxCell id="jR2HOFibQMmsSOz2MYRR-500" value="" style="whiteSpace=wrap;html=1;aspect=fixed;opacity=50;fillColor=none;" vertex="1" parent="1">
          <mxGeometry x="543" y="202" width="20" height="20" as="geometry" />
        </mxCell>
        <mxCell id="jR2HOFibQMmsSOz2MYRR-501" value="" style="whiteSpace=wrap;html=1;aspect=fixed;opacity=50;fillColor=none;" vertex="1" parent="1">
          <mxGeometry x="543" y="222" width="20" height="20" as="geometry" />
        </mxCell>
        <mxCell id="jR2HOFibQMmsSOz2MYRR-502" value="" style="whiteSpace=wrap;html=1;aspect=fixed;opacity=50;fillColor=none;" vertex="1" parent="1">
          <mxGeometry x="563" y="162" width="20" height="20" as="geometry" />
        </mxCell>
        <mxCell id="jR2HOFibQMmsSOz2MYRR-503" value="" style="whiteSpace=wrap;html=1;aspect=fixed;opacity=50;fillColor=none;" vertex="1" parent="1">
          <mxGeometry x="563" y="182" width="20" height="20" as="geometry" />
        </mxCell>
        <mxCell id="jR2HOFibQMmsSOz2MYRR-504" value="" style="whiteSpace=wrap;html=1;aspect=fixed;opacity=50;fillColor=none;" vertex="1" parent="1">
          <mxGeometry x="563" y="202" width="20" height="20" as="geometry" />
        </mxCell>
        <mxCell id="jR2HOFibQMmsSOz2MYRR-505" value="" style="whiteSpace=wrap;html=1;aspect=fixed;opacity=50;fillColor=none;" vertex="1" parent="1">
          <mxGeometry x="563" y="222" width="20" height="20" as="geometry" />
        </mxCell>
        <mxCell id="jR2HOFibQMmsSOz2MYRR-506" value="" style="whiteSpace=wrap;html=1;aspect=fixed;opacity=50;fillColor=none;" vertex="1" parent="1">
          <mxGeometry x="583" y="162" width="20" height="20" as="geometry" />
        </mxCell>
        <mxCell id="jR2HOFibQMmsSOz2MYRR-507" value="" style="whiteSpace=wrap;html=1;aspect=fixed;opacity=50;fillColor=none;" vertex="1" parent="1">
          <mxGeometry x="583" y="182" width="20" height="20" as="geometry" />
        </mxCell>
        <mxCell id="jR2HOFibQMmsSOz2MYRR-508" value="" style="whiteSpace=wrap;html=1;aspect=fixed;opacity=50;fillColor=none;" vertex="1" parent="1">
          <mxGeometry x="583" y="202" width="20" height="20" as="geometry" />
        </mxCell>
        <mxCell id="jR2HOFibQMmsSOz2MYRR-509" value="" style="whiteSpace=wrap;html=1;aspect=fixed;opacity=50;fillColor=none;" vertex="1" parent="1">
          <mxGeometry x="583" y="222" width="20" height="20" as="geometry" />
        </mxCell>
        <mxCell id="jR2HOFibQMmsSOz2MYRR-510" value="" style="whiteSpace=wrap;html=1;aspect=fixed;opacity=50;fillColor=none;" vertex="1" parent="1">
          <mxGeometry x="603" y="162" width="20" height="20" as="geometry" />
        </mxCell>
        <mxCell id="jR2HOFibQMmsSOz2MYRR-511" value="" style="whiteSpace=wrap;html=1;aspect=fixed;opacity=50;fillColor=none;" vertex="1" parent="1">
          <mxGeometry x="603" y="182" width="20" height="20" as="geometry" />
        </mxCell>
        <mxCell id="jR2HOFibQMmsSOz2MYRR-512" value="" style="whiteSpace=wrap;html=1;aspect=fixed;opacity=50;fillColor=none;" vertex="1" parent="1">
          <mxGeometry x="603" y="202" width="20" height="20" as="geometry" />
        </mxCell>
        <mxCell id="jR2HOFibQMmsSOz2MYRR-513" value="" style="whiteSpace=wrap;html=1;aspect=fixed;opacity=50;fillColor=none;" vertex="1" parent="1">
          <mxGeometry x="603" y="222" width="20" height="20" as="geometry" />
        </mxCell>
        <mxCell id="jR2HOFibQMmsSOz2MYRR-514" value="" style="whiteSpace=wrap;html=1;aspect=fixed;opacity=50;fillColor=none;" vertex="1" parent="1">
          <mxGeometry x="623" y="162" width="20" height="20" as="geometry" />
        </mxCell>
        <mxCell id="jR2HOFibQMmsSOz2MYRR-515" value="" style="whiteSpace=wrap;html=1;aspect=fixed;opacity=50;fillColor=none;" vertex="1" parent="1">
          <mxGeometry x="623" y="182" width="20" height="20" as="geometry" />
        </mxCell>
        <mxCell id="jR2HOFibQMmsSOz2MYRR-516" value="" style="whiteSpace=wrap;html=1;aspect=fixed;opacity=50;fillColor=none;" vertex="1" parent="1">
          <mxGeometry x="623" y="202" width="20" height="20" as="geometry" />
        </mxCell>
        <mxCell id="jR2HOFibQMmsSOz2MYRR-517" value="" style="whiteSpace=wrap;html=1;aspect=fixed;opacity=50;fillColor=none;" vertex="1" parent="1">
          <mxGeometry x="623" y="222" width="20" height="20" as="geometry" />
        </mxCell>
        <mxCell id="jR2HOFibQMmsSOz2MYRR-518" value="" style="whiteSpace=wrap;html=1;aspect=fixed;opacity=50;fillColor=none;" vertex="1" parent="1">
          <mxGeometry x="643" y="162" width="20" height="20" as="geometry" />
        </mxCell>
        <mxCell id="jR2HOFibQMmsSOz2MYRR-519" value="" style="whiteSpace=wrap;html=1;aspect=fixed;opacity=50;fillColor=none;" vertex="1" parent="1">
          <mxGeometry x="643" y="182" width="20" height="20" as="geometry" />
        </mxCell>
        <mxCell id="jR2HOFibQMmsSOz2MYRR-520" value="" style="whiteSpace=wrap;html=1;aspect=fixed;opacity=50;fillColor=none;" vertex="1" parent="1">
          <mxGeometry x="643" y="202" width="20" height="20" as="geometry" />
        </mxCell>
        <mxCell id="jR2HOFibQMmsSOz2MYRR-521" value="" style="whiteSpace=wrap;html=1;aspect=fixed;opacity=50;fillColor=none;" vertex="1" parent="1">
          <mxGeometry x="643" y="222" width="20" height="20" as="geometry" />
        </mxCell>
        <mxCell id="jR2HOFibQMmsSOz2MYRR-522" value="" style="whiteSpace=wrap;html=1;aspect=fixed;opacity=50;fillColor=none;" vertex="1" parent="1">
          <mxGeometry x="663" y="162" width="20" height="20" as="geometry" />
        </mxCell>
        <mxCell id="jR2HOFibQMmsSOz2MYRR-523" value="" style="whiteSpace=wrap;html=1;aspect=fixed;opacity=50;fillColor=none;" vertex="1" parent="1">
          <mxGeometry x="663" y="182" width="20" height="20" as="geometry" />
        </mxCell>
        <mxCell id="jR2HOFibQMmsSOz2MYRR-524" value="" style="whiteSpace=wrap;html=1;aspect=fixed;opacity=50;fillColor=none;" vertex="1" parent="1">
          <mxGeometry x="663" y="202" width="20" height="20" as="geometry" />
        </mxCell>
        <mxCell id="jR2HOFibQMmsSOz2MYRR-525" value="" style="whiteSpace=wrap;html=1;aspect=fixed;opacity=50;fillColor=none;" vertex="1" parent="1">
          <mxGeometry x="663" y="222" width="20" height="20" as="geometry" />
        </mxCell>
        <mxCell id="jR2HOFibQMmsSOz2MYRR-526" value="" style="whiteSpace=wrap;html=1;aspect=fixed;opacity=50;fillColor=none;" vertex="1" parent="1">
          <mxGeometry x="683" y="162" width="20" height="20" as="geometry" />
        </mxCell>
        <mxCell id="jR2HOFibQMmsSOz2MYRR-527" value="" style="whiteSpace=wrap;html=1;aspect=fixed;opacity=50;fillColor=none;" vertex="1" parent="1">
          <mxGeometry x="683" y="182" width="20" height="20" as="geometry" />
        </mxCell>
        <mxCell id="jR2HOFibQMmsSOz2MYRR-528" value="" style="whiteSpace=wrap;html=1;aspect=fixed;opacity=50;fillColor=none;" vertex="1" parent="1">
          <mxGeometry x="683" y="202" width="20" height="20" as="geometry" />
        </mxCell>
        <mxCell id="jR2HOFibQMmsSOz2MYRR-529" value="" style="whiteSpace=wrap;html=1;aspect=fixed;opacity=50;fillColor=none;" vertex="1" parent="1">
          <mxGeometry x="683" y="222" width="20" height="20" as="geometry" />
        </mxCell>
        <mxCell id="jR2HOFibQMmsSOz2MYRR-530" value="" style="whiteSpace=wrap;html=1;aspect=fixed;opacity=50;fillColor=none;" vertex="1" parent="1">
          <mxGeometry x="703" y="162" width="20" height="20" as="geometry" />
        </mxCell>
        <mxCell id="jR2HOFibQMmsSOz2MYRR-531" value="" style="whiteSpace=wrap;html=1;aspect=fixed;opacity=50;fillColor=none;" vertex="1" parent="1">
          <mxGeometry x="703" y="182" width="20" height="20" as="geometry" />
        </mxCell>
        <mxCell id="jR2HOFibQMmsSOz2MYRR-532" value="" style="whiteSpace=wrap;html=1;aspect=fixed;opacity=50;fillColor=none;" vertex="1" parent="1">
          <mxGeometry x="703" y="202" width="20" height="20" as="geometry" />
        </mxCell>
        <mxCell id="jR2HOFibQMmsSOz2MYRR-533" value="" style="whiteSpace=wrap;html=1;aspect=fixed;opacity=50;fillColor=none;" vertex="1" parent="1">
          <mxGeometry x="703" y="222" width="20" height="20" as="geometry" />
        </mxCell>
        <mxCell id="jR2HOFibQMmsSOz2MYRR-534" value="" style="whiteSpace=wrap;html=1;aspect=fixed;opacity=50;fillColor=none;" vertex="1" parent="1">
          <mxGeometry x="723" y="162" width="20" height="20" as="geometry" />
        </mxCell>
        <mxCell id="jR2HOFibQMmsSOz2MYRR-535" value="" style="whiteSpace=wrap;html=1;aspect=fixed;opacity=50;fillColor=none;" vertex="1" parent="1">
          <mxGeometry x="723" y="182" width="20" height="20" as="geometry" />
        </mxCell>
        <mxCell id="jR2HOFibQMmsSOz2MYRR-536" value="" style="whiteSpace=wrap;html=1;aspect=fixed;opacity=50;fillColor=none;" vertex="1" parent="1">
          <mxGeometry x="723" y="202" width="20" height="20" as="geometry" />
        </mxCell>
        <mxCell id="jR2HOFibQMmsSOz2MYRR-537" value="" style="whiteSpace=wrap;html=1;aspect=fixed;opacity=50;fillColor=none;" vertex="1" parent="1">
          <mxGeometry x="723" y="222" width="20" height="20" as="geometry" />
        </mxCell>
        <mxCell id="jR2HOFibQMmsSOz2MYRR-538" value="" style="whiteSpace=wrap;html=1;aspect=fixed;opacity=50;fillColor=none;" vertex="1" parent="1">
          <mxGeometry x="743" y="162" width="20" height="20" as="geometry" />
        </mxCell>
        <mxCell id="jR2HOFibQMmsSOz2MYRR-539" value="" style="whiteSpace=wrap;html=1;aspect=fixed;opacity=50;fillColor=none;" vertex="1" parent="1">
          <mxGeometry x="743" y="182" width="20" height="20" as="geometry" />
        </mxCell>
        <mxCell id="jR2HOFibQMmsSOz2MYRR-540" value="" style="whiteSpace=wrap;html=1;aspect=fixed;opacity=50;fillColor=none;" vertex="1" parent="1">
          <mxGeometry x="743" y="202" width="20" height="20" as="geometry" />
        </mxCell>
        <mxCell id="jR2HOFibQMmsSOz2MYRR-541" value="" style="whiteSpace=wrap;html=1;aspect=fixed;opacity=50;fillColor=none;" vertex="1" parent="1">
          <mxGeometry x="743" y="222" width="20" height="20" as="geometry" />
        </mxCell>
        <mxCell id="jR2HOFibQMmsSOz2MYRR-542" value="" style="whiteSpace=wrap;html=1;aspect=fixed;opacity=50;fillColor=none;" vertex="1" parent="1">
          <mxGeometry x="763" y="162" width="20" height="20" as="geometry" />
        </mxCell>
        <mxCell id="jR2HOFibQMmsSOz2MYRR-543" value="" style="whiteSpace=wrap;html=1;aspect=fixed;opacity=50;fillColor=none;" vertex="1" parent="1">
          <mxGeometry x="763" y="182" width="20" height="20" as="geometry" />
        </mxCell>
        <mxCell id="jR2HOFibQMmsSOz2MYRR-544" value="" style="whiteSpace=wrap;html=1;aspect=fixed;opacity=50;fillColor=none;" vertex="1" parent="1">
          <mxGeometry x="763" y="202" width="20" height="20" as="geometry" />
        </mxCell>
        <mxCell id="jR2HOFibQMmsSOz2MYRR-545" value="" style="whiteSpace=wrap;html=1;aspect=fixed;opacity=50;fillColor=none;" vertex="1" parent="1">
          <mxGeometry x="763" y="222" width="20" height="20" as="geometry" />
        </mxCell>
        <mxCell id="jR2HOFibQMmsSOz2MYRR-546" value="" style="whiteSpace=wrap;html=1;aspect=fixed;opacity=50;fillColor=none;" vertex="1" parent="1">
          <mxGeometry x="783" y="162" width="20" height="20" as="geometry" />
        </mxCell>
        <mxCell id="jR2HOFibQMmsSOz2MYRR-547" value="" style="whiteSpace=wrap;html=1;aspect=fixed;opacity=50;fillColor=none;" vertex="1" parent="1">
          <mxGeometry x="783" y="182" width="20" height="20" as="geometry" />
        </mxCell>
        <mxCell id="jR2HOFibQMmsSOz2MYRR-548" value="" style="whiteSpace=wrap;html=1;aspect=fixed;opacity=50;fillColor=none;" vertex="1" parent="1">
          <mxGeometry x="783" y="202" width="20" height="20" as="geometry" />
        </mxCell>
        <mxCell id="jR2HOFibQMmsSOz2MYRR-549" value="" style="whiteSpace=wrap;html=1;aspect=fixed;opacity=50;fillColor=none;" vertex="1" parent="1">
          <mxGeometry x="783" y="222" width="20" height="20" as="geometry" />
        </mxCell>
        <mxCell id="jR2HOFibQMmsSOz2MYRR-550" value="" style="whiteSpace=wrap;html=1;aspect=fixed;opacity=50;fillColor=none;" vertex="1" parent="1">
          <mxGeometry x="483" y="242" width="20" height="20" as="geometry" />
        </mxCell>
        <mxCell id="jR2HOFibQMmsSOz2MYRR-551" value="" style="whiteSpace=wrap;html=1;aspect=fixed;opacity=50;fillColor=none;" vertex="1" parent="1">
          <mxGeometry x="483" y="262" width="20" height="20" as="geometry" />
        </mxCell>
        <mxCell id="jR2HOFibQMmsSOz2MYRR-552" value="" style="whiteSpace=wrap;html=1;aspect=fixed;opacity=50;fillColor=none;" vertex="1" parent="1">
          <mxGeometry x="483" y="282" width="20" height="20" as="geometry" />
        </mxCell>
        <mxCell id="jR2HOFibQMmsSOz2MYRR-553" value="" style="whiteSpace=wrap;html=1;aspect=fixed;opacity=50;fillColor=none;" vertex="1" parent="1">
          <mxGeometry x="483" y="302" width="20" height="20" as="geometry" />
        </mxCell>
        <mxCell id="jR2HOFibQMmsSOz2MYRR-554" value="" style="whiteSpace=wrap;html=1;aspect=fixed;opacity=50;fillColor=none;" vertex="1" parent="1">
          <mxGeometry x="503" y="242" width="20" height="20" as="geometry" />
        </mxCell>
        <mxCell id="jR2HOFibQMmsSOz2MYRR-555" value="" style="whiteSpace=wrap;html=1;aspect=fixed;opacity=50;fillColor=none;" vertex="1" parent="1">
          <mxGeometry x="503" y="262" width="20" height="20" as="geometry" />
        </mxCell>
        <mxCell id="jR2HOFibQMmsSOz2MYRR-556" value="" style="whiteSpace=wrap;html=1;aspect=fixed;opacity=50;fillColor=none;" vertex="1" parent="1">
          <mxGeometry x="503" y="282" width="20" height="20" as="geometry" />
        </mxCell>
        <mxCell id="jR2HOFibQMmsSOz2MYRR-557" value="" style="whiteSpace=wrap;html=1;aspect=fixed;opacity=50;fillColor=none;" vertex="1" parent="1">
          <mxGeometry x="503" y="302" width="20" height="20" as="geometry" />
        </mxCell>
        <mxCell id="jR2HOFibQMmsSOz2MYRR-558" value="" style="whiteSpace=wrap;html=1;aspect=fixed;opacity=50;fillColor=none;" vertex="1" parent="1">
          <mxGeometry x="523" y="242" width="20" height="20" as="geometry" />
        </mxCell>
        <mxCell id="jR2HOFibQMmsSOz2MYRR-559" value="" style="whiteSpace=wrap;html=1;aspect=fixed;opacity=50;fillColor=none;" vertex="1" parent="1">
          <mxGeometry x="523" y="262" width="20" height="20" as="geometry" />
        </mxCell>
        <mxCell id="jR2HOFibQMmsSOz2MYRR-560" value="" style="whiteSpace=wrap;html=1;aspect=fixed;opacity=50;fillColor=none;" vertex="1" parent="1">
          <mxGeometry x="523" y="282" width="20" height="20" as="geometry" />
        </mxCell>
        <mxCell id="jR2HOFibQMmsSOz2MYRR-561" value="" style="whiteSpace=wrap;html=1;aspect=fixed;opacity=50;fillColor=none;" vertex="1" parent="1">
          <mxGeometry x="523" y="302" width="20" height="20" as="geometry" />
        </mxCell>
        <mxCell id="jR2HOFibQMmsSOz2MYRR-562" value="" style="whiteSpace=wrap;html=1;aspect=fixed;opacity=50;fillColor=none;" vertex="1" parent="1">
          <mxGeometry x="543" y="242" width="20" height="20" as="geometry" />
        </mxCell>
        <mxCell id="jR2HOFibQMmsSOz2MYRR-563" value="" style="whiteSpace=wrap;html=1;aspect=fixed;opacity=50;fillColor=none;" vertex="1" parent="1">
          <mxGeometry x="543" y="262" width="20" height="20" as="geometry" />
        </mxCell>
        <mxCell id="jR2HOFibQMmsSOz2MYRR-564" value="" style="whiteSpace=wrap;html=1;aspect=fixed;opacity=50;fillColor=none;" vertex="1" parent="1">
          <mxGeometry x="543" y="282" width="20" height="20" as="geometry" />
        </mxCell>
        <mxCell id="jR2HOFibQMmsSOz2MYRR-565" value="" style="whiteSpace=wrap;html=1;aspect=fixed;opacity=50;fillColor=none;" vertex="1" parent="1">
          <mxGeometry x="543" y="302" width="20" height="20" as="geometry" />
        </mxCell>
        <mxCell id="jR2HOFibQMmsSOz2MYRR-566" value="" style="whiteSpace=wrap;html=1;aspect=fixed;opacity=50;fillColor=none;" vertex="1" parent="1">
          <mxGeometry x="563" y="242" width="20" height="20" as="geometry" />
        </mxCell>
        <mxCell id="jR2HOFibQMmsSOz2MYRR-567" value="" style="whiteSpace=wrap;html=1;aspect=fixed;opacity=50;fillColor=none;" vertex="1" parent="1">
          <mxGeometry x="563" y="262" width="20" height="20" as="geometry" />
        </mxCell>
        <mxCell id="jR2HOFibQMmsSOz2MYRR-568" value="" style="whiteSpace=wrap;html=1;aspect=fixed;opacity=50;fillColor=none;" vertex="1" parent="1">
          <mxGeometry x="563" y="282" width="20" height="20" as="geometry" />
        </mxCell>
        <mxCell id="jR2HOFibQMmsSOz2MYRR-569" value="" style="whiteSpace=wrap;html=1;aspect=fixed;opacity=50;fillColor=none;" vertex="1" parent="1">
          <mxGeometry x="563" y="302" width="20" height="20" as="geometry" />
        </mxCell>
        <mxCell id="jR2HOFibQMmsSOz2MYRR-570" value="" style="whiteSpace=wrap;html=1;aspect=fixed;opacity=50;fillColor=none;" vertex="1" parent="1">
          <mxGeometry x="583" y="242" width="20" height="20" as="geometry" />
        </mxCell>
        <mxCell id="jR2HOFibQMmsSOz2MYRR-571" value="" style="whiteSpace=wrap;html=1;aspect=fixed;opacity=50;fillColor=none;" vertex="1" parent="1">
          <mxGeometry x="583" y="262" width="20" height="20" as="geometry" />
        </mxCell>
        <mxCell id="jR2HOFibQMmsSOz2MYRR-572" value="" style="whiteSpace=wrap;html=1;aspect=fixed;opacity=50;fillColor=none;" vertex="1" parent="1">
          <mxGeometry x="583" y="282" width="20" height="20" as="geometry" />
        </mxCell>
        <mxCell id="jR2HOFibQMmsSOz2MYRR-573" value="" style="whiteSpace=wrap;html=1;aspect=fixed;opacity=50;fillColor=none;" vertex="1" parent="1">
          <mxGeometry x="583" y="302" width="20" height="20" as="geometry" />
        </mxCell>
        <mxCell id="jR2HOFibQMmsSOz2MYRR-574" value="" style="whiteSpace=wrap;html=1;aspect=fixed;opacity=50;fillColor=none;" vertex="1" parent="1">
          <mxGeometry x="603" y="242" width="20" height="20" as="geometry" />
        </mxCell>
        <mxCell id="jR2HOFibQMmsSOz2MYRR-575" value="" style="whiteSpace=wrap;html=1;aspect=fixed;opacity=50;fillColor=none;" vertex="1" parent="1">
          <mxGeometry x="603" y="262" width="20" height="20" as="geometry" />
        </mxCell>
        <mxCell id="jR2HOFibQMmsSOz2MYRR-576" value="" style="whiteSpace=wrap;html=1;aspect=fixed;opacity=50;fillColor=none;" vertex="1" parent="1">
          <mxGeometry x="603" y="282" width="20" height="20" as="geometry" />
        </mxCell>
        <mxCell id="jR2HOFibQMmsSOz2MYRR-577" value="" style="whiteSpace=wrap;html=1;aspect=fixed;opacity=50;fillColor=none;" vertex="1" parent="1">
          <mxGeometry x="603" y="302" width="20" height="20" as="geometry" />
        </mxCell>
        <mxCell id="jR2HOFibQMmsSOz2MYRR-578" value="" style="whiteSpace=wrap;html=1;aspect=fixed;opacity=50;fillColor=none;" vertex="1" parent="1">
          <mxGeometry x="623" y="242" width="20" height="20" as="geometry" />
        </mxCell>
        <mxCell id="jR2HOFibQMmsSOz2MYRR-579" value="" style="whiteSpace=wrap;html=1;aspect=fixed;opacity=50;fillColor=none;" vertex="1" parent="1">
          <mxGeometry x="623" y="262" width="20" height="20" as="geometry" />
        </mxCell>
        <mxCell id="jR2HOFibQMmsSOz2MYRR-580" value="" style="whiteSpace=wrap;html=1;aspect=fixed;opacity=50;fillColor=none;" vertex="1" parent="1">
          <mxGeometry x="623" y="282" width="20" height="20" as="geometry" />
        </mxCell>
        <mxCell id="jR2HOFibQMmsSOz2MYRR-581" value="" style="whiteSpace=wrap;html=1;aspect=fixed;opacity=50;fillColor=none;" vertex="1" parent="1">
          <mxGeometry x="623" y="302" width="20" height="20" as="geometry" />
        </mxCell>
        <mxCell id="jR2HOFibQMmsSOz2MYRR-582" value="" style="whiteSpace=wrap;html=1;aspect=fixed;opacity=50;fillColor=none;" vertex="1" parent="1">
          <mxGeometry x="643" y="242" width="20" height="20" as="geometry" />
        </mxCell>
        <mxCell id="jR2HOFibQMmsSOz2MYRR-583" value="" style="whiteSpace=wrap;html=1;aspect=fixed;opacity=50;fillColor=none;" vertex="1" parent="1">
          <mxGeometry x="643" y="262" width="20" height="20" as="geometry" />
        </mxCell>
        <mxCell id="jR2HOFibQMmsSOz2MYRR-584" value="" style="whiteSpace=wrap;html=1;aspect=fixed;opacity=50;fillColor=none;" vertex="1" parent="1">
          <mxGeometry x="643" y="282" width="20" height="20" as="geometry" />
        </mxCell>
        <mxCell id="jR2HOFibQMmsSOz2MYRR-585" value="" style="whiteSpace=wrap;html=1;aspect=fixed;opacity=50;fillColor=none;" vertex="1" parent="1">
          <mxGeometry x="643" y="302" width="20" height="20" as="geometry" />
        </mxCell>
        <mxCell id="jR2HOFibQMmsSOz2MYRR-586" value="" style="whiteSpace=wrap;html=1;aspect=fixed;opacity=50;fillColor=none;" vertex="1" parent="1">
          <mxGeometry x="663" y="242" width="20" height="20" as="geometry" />
        </mxCell>
        <mxCell id="jR2HOFibQMmsSOz2MYRR-587" value="" style="whiteSpace=wrap;html=1;aspect=fixed;opacity=50;fillColor=none;" vertex="1" parent="1">
          <mxGeometry x="663" y="262" width="20" height="20" as="geometry" />
        </mxCell>
        <mxCell id="jR2HOFibQMmsSOz2MYRR-588" value="" style="whiteSpace=wrap;html=1;aspect=fixed;opacity=50;fillColor=none;" vertex="1" parent="1">
          <mxGeometry x="663" y="282" width="20" height="20" as="geometry" />
        </mxCell>
        <mxCell id="jR2HOFibQMmsSOz2MYRR-589" value="" style="whiteSpace=wrap;html=1;aspect=fixed;opacity=50;fillColor=none;" vertex="1" parent="1">
          <mxGeometry x="663" y="302" width="20" height="20" as="geometry" />
        </mxCell>
        <mxCell id="jR2HOFibQMmsSOz2MYRR-590" value="" style="whiteSpace=wrap;html=1;aspect=fixed;opacity=50;fillColor=none;" vertex="1" parent="1">
          <mxGeometry x="683" y="242" width="20" height="20" as="geometry" />
        </mxCell>
        <mxCell id="jR2HOFibQMmsSOz2MYRR-591" value="" style="whiteSpace=wrap;html=1;aspect=fixed;opacity=50;fillColor=none;" vertex="1" parent="1">
          <mxGeometry x="683" y="262" width="20" height="20" as="geometry" />
        </mxCell>
        <mxCell id="jR2HOFibQMmsSOz2MYRR-592" value="" style="whiteSpace=wrap;html=1;aspect=fixed;opacity=50;fillColor=none;" vertex="1" parent="1">
          <mxGeometry x="683" y="282" width="20" height="20" as="geometry" />
        </mxCell>
        <mxCell id="jR2HOFibQMmsSOz2MYRR-593" value="" style="whiteSpace=wrap;html=1;aspect=fixed;opacity=50;fillColor=none;" vertex="1" parent="1">
          <mxGeometry x="683" y="302" width="20" height="20" as="geometry" />
        </mxCell>
        <mxCell id="jR2HOFibQMmsSOz2MYRR-594" value="" style="whiteSpace=wrap;html=1;aspect=fixed;opacity=50;fillColor=none;" vertex="1" parent="1">
          <mxGeometry x="703" y="242" width="20" height="20" as="geometry" />
        </mxCell>
        <mxCell id="jR2HOFibQMmsSOz2MYRR-595" value="" style="whiteSpace=wrap;html=1;aspect=fixed;opacity=50;fillColor=none;" vertex="1" parent="1">
          <mxGeometry x="703" y="262" width="20" height="20" as="geometry" />
        </mxCell>
        <mxCell id="jR2HOFibQMmsSOz2MYRR-596" value="" style="whiteSpace=wrap;html=1;aspect=fixed;opacity=50;fillColor=none;" vertex="1" parent="1">
          <mxGeometry x="703" y="282" width="20" height="20" as="geometry" />
        </mxCell>
        <mxCell id="jR2HOFibQMmsSOz2MYRR-597" value="" style="whiteSpace=wrap;html=1;aspect=fixed;opacity=50;fillColor=none;" vertex="1" parent="1">
          <mxGeometry x="703" y="302" width="20" height="20" as="geometry" />
        </mxCell>
        <mxCell id="jR2HOFibQMmsSOz2MYRR-598" value="" style="whiteSpace=wrap;html=1;aspect=fixed;opacity=50;fillColor=none;" vertex="1" parent="1">
          <mxGeometry x="723" y="242" width="20" height="20" as="geometry" />
        </mxCell>
        <mxCell id="jR2HOFibQMmsSOz2MYRR-599" value="" style="whiteSpace=wrap;html=1;aspect=fixed;opacity=50;fillColor=none;" vertex="1" parent="1">
          <mxGeometry x="723" y="262" width="20" height="20" as="geometry" />
        </mxCell>
        <mxCell id="jR2HOFibQMmsSOz2MYRR-600" value="" style="whiteSpace=wrap;html=1;aspect=fixed;opacity=50;fillColor=none;" vertex="1" parent="1">
          <mxGeometry x="723" y="282" width="20" height="20" as="geometry" />
        </mxCell>
        <mxCell id="jR2HOFibQMmsSOz2MYRR-601" value="" style="whiteSpace=wrap;html=1;aspect=fixed;opacity=50;fillColor=none;" vertex="1" parent="1">
          <mxGeometry x="723" y="302" width="20" height="20" as="geometry" />
        </mxCell>
        <mxCell id="jR2HOFibQMmsSOz2MYRR-602" value="" style="whiteSpace=wrap;html=1;aspect=fixed;opacity=50;fillColor=none;" vertex="1" parent="1">
          <mxGeometry x="743" y="242" width="20" height="20" as="geometry" />
        </mxCell>
        <mxCell id="jR2HOFibQMmsSOz2MYRR-603" value="" style="whiteSpace=wrap;html=1;aspect=fixed;opacity=50;fillColor=none;" vertex="1" parent="1">
          <mxGeometry x="743" y="262" width="20" height="20" as="geometry" />
        </mxCell>
        <mxCell id="jR2HOFibQMmsSOz2MYRR-604" value="" style="whiteSpace=wrap;html=1;aspect=fixed;opacity=50;fillColor=none;" vertex="1" parent="1">
          <mxGeometry x="743" y="282" width="20" height="20" as="geometry" />
        </mxCell>
        <mxCell id="jR2HOFibQMmsSOz2MYRR-605" value="" style="whiteSpace=wrap;html=1;aspect=fixed;opacity=50;fillColor=none;" vertex="1" parent="1">
          <mxGeometry x="743" y="302" width="20" height="20" as="geometry" />
        </mxCell>
        <mxCell id="jR2HOFibQMmsSOz2MYRR-606" value="" style="whiteSpace=wrap;html=1;aspect=fixed;opacity=50;fillColor=none;" vertex="1" parent="1">
          <mxGeometry x="763" y="242" width="20" height="20" as="geometry" />
        </mxCell>
        <mxCell id="jR2HOFibQMmsSOz2MYRR-607" value="" style="whiteSpace=wrap;html=1;aspect=fixed;opacity=50;fillColor=none;" vertex="1" parent="1">
          <mxGeometry x="763" y="262" width="20" height="20" as="geometry" />
        </mxCell>
        <mxCell id="jR2HOFibQMmsSOz2MYRR-608" value="" style="whiteSpace=wrap;html=1;aspect=fixed;opacity=50;fillColor=none;" vertex="1" parent="1">
          <mxGeometry x="763" y="282" width="20" height="20" as="geometry" />
        </mxCell>
        <mxCell id="jR2HOFibQMmsSOz2MYRR-609" value="" style="whiteSpace=wrap;html=1;aspect=fixed;opacity=50;fillColor=none;" vertex="1" parent="1">
          <mxGeometry x="763" y="302" width="20" height="20" as="geometry" />
        </mxCell>
        <mxCell id="jR2HOFibQMmsSOz2MYRR-610" value="" style="whiteSpace=wrap;html=1;aspect=fixed;opacity=50;fillColor=none;" vertex="1" parent="1">
          <mxGeometry x="783" y="242" width="20" height="20" as="geometry" />
        </mxCell>
        <mxCell id="jR2HOFibQMmsSOz2MYRR-611" value="" style="whiteSpace=wrap;html=1;aspect=fixed;opacity=50;fillColor=none;" vertex="1" parent="1">
          <mxGeometry x="783" y="262" width="20" height="20" as="geometry" />
        </mxCell>
        <mxCell id="jR2HOFibQMmsSOz2MYRR-612" value="" style="whiteSpace=wrap;html=1;aspect=fixed;opacity=50;fillColor=none;" vertex="1" parent="1">
          <mxGeometry x="783" y="282" width="20" height="20" as="geometry" />
        </mxCell>
        <mxCell id="jR2HOFibQMmsSOz2MYRR-613" value="" style="whiteSpace=wrap;html=1;aspect=fixed;opacity=50;fillColor=none;" vertex="1" parent="1">
          <mxGeometry x="783" y="302" width="20" height="20" as="geometry" />
        </mxCell>
        <mxCell id="jR2HOFibQMmsSOz2MYRR-614" value="" style="rounded=0;whiteSpace=wrap;html=1;strokeWidth=4;fillColor=none;strokeColor=#CC0000;" vertex="1" parent="1">
          <mxGeometry x="483" y="82" width="80" height="80" as="geometry" />
        </mxCell>
        <mxCell id="jR2HOFibQMmsSOz2MYRR-615" value="" style="rounded=0;whiteSpace=wrap;html=1;strokeWidth=4;fillColor=none;strokeColor=#CC0000;" vertex="1" parent="1">
          <mxGeometry x="563" y="82" width="80" height="80" as="geometry" />
        </mxCell>
        <mxCell id="jR2HOFibQMmsSOz2MYRR-616" value="" style="rounded=0;whiteSpace=wrap;html=1;strokeWidth=4;fillColor=none;strokeColor=#CC0000;" vertex="1" parent="1">
          <mxGeometry x="643" y="82" width="80" height="80" as="geometry" />
        </mxCell>
        <mxCell id="jR2HOFibQMmsSOz2MYRR-617" value="" style="rounded=0;whiteSpace=wrap;html=1;strokeWidth=4;fillColor=none;strokeColor=#CC0000;" vertex="1" parent="1">
          <mxGeometry x="723" y="82" width="80" height="80" as="geometry" />
        </mxCell>
        <mxCell id="jR2HOFibQMmsSOz2MYRR-618" value="" style="rounded=0;whiteSpace=wrap;html=1;strokeWidth=4;fillColor=none;strokeColor=#CC0000;" vertex="1" parent="1">
          <mxGeometry x="483" y="162" width="80" height="80" as="geometry" />
        </mxCell>
        <mxCell id="jR2HOFibQMmsSOz2MYRR-619" value="" style="rounded=0;whiteSpace=wrap;html=1;strokeWidth=4;fillColor=none;strokeColor=#CC0000;" vertex="1" parent="1">
          <mxGeometry x="563" y="162" width="80" height="80" as="geometry" />
        </mxCell>
        <mxCell id="jR2HOFibQMmsSOz2MYRR-620" value="" style="rounded=0;whiteSpace=wrap;html=1;strokeWidth=4;fillColor=none;strokeColor=#CC0000;" vertex="1" parent="1">
          <mxGeometry x="643" y="162" width="80" height="80" as="geometry" />
        </mxCell>
        <mxCell id="jR2HOFibQMmsSOz2MYRR-621" value="" style="rounded=0;whiteSpace=wrap;html=1;strokeWidth=4;fillColor=none;strokeColor=#CC0000;" vertex="1" parent="1">
          <mxGeometry x="723" y="162" width="80" height="80" as="geometry" />
        </mxCell>
        <mxCell id="jR2HOFibQMmsSOz2MYRR-622" value="" style="rounded=0;whiteSpace=wrap;html=1;strokeWidth=4;fillColor=none;strokeColor=#CC0000;" vertex="1" parent="1">
          <mxGeometry x="483" y="242" width="80" height="80" as="geometry" />
        </mxCell>
        <mxCell id="jR2HOFibQMmsSOz2MYRR-623" value="" style="rounded=0;whiteSpace=wrap;html=1;strokeWidth=4;fillColor=none;strokeColor=#CC0000;" vertex="1" parent="1">
          <mxGeometry x="563" y="242" width="80" height="80" as="geometry" />
        </mxCell>
        <mxCell id="jR2HOFibQMmsSOz2MYRR-624" value="" style="rounded=0;whiteSpace=wrap;html=1;strokeWidth=4;fillColor=none;strokeColor=#CC0000;" vertex="1" parent="1">
          <mxGeometry x="643" y="242" width="80" height="80" as="geometry" />
        </mxCell>
        <mxCell id="jR2HOFibQMmsSOz2MYRR-625" value="" style="rounded=0;whiteSpace=wrap;html=1;strokeWidth=4;fillColor=none;strokeColor=#CC0000;" vertex="1" parent="1">
          <mxGeometry x="723" y="242" width="80" height="80" as="geometry" />
        </mxCell>
        <mxCell id="jR2HOFibQMmsSOz2MYRR-626" value="" style="rounded=0;whiteSpace=wrap;html=1;strokeWidth=4;fillColor=none;strokeColor=#CC0000;" vertex="1" parent="1">
          <mxGeometry x="483" y="2" width="80" height="80" as="geometry" />
        </mxCell>
        <mxCell id="jR2HOFibQMmsSOz2MYRR-627" value="" style="rounded=0;whiteSpace=wrap;html=1;strokeWidth=4;fillColor=none;strokeColor=#CC0000;" vertex="1" parent="1">
          <mxGeometry x="563" y="2" width="80" height="80" as="geometry" />
        </mxCell>
        <mxCell id="jR2HOFibQMmsSOz2MYRR-628" value="" style="rounded=0;whiteSpace=wrap;html=1;strokeWidth=4;fillColor=none;strokeColor=#CC0000;" vertex="1" parent="1">
          <mxGeometry x="643" y="2" width="80" height="80" as="geometry" />
        </mxCell>
        <mxCell id="jR2HOFibQMmsSOz2MYRR-629" value="" style="rounded=0;whiteSpace=wrap;html=1;strokeWidth=4;fillColor=none;strokeColor=#CC0000;" vertex="1" parent="1">
          <mxGeometry x="723" y="2" width="80" height="80" as="geometry" />
        </mxCell>
        <mxCell id="jR2HOFibQMmsSOz2MYRR-630" style="rounded=0;orthogonalLoop=1;jettySize=auto;html=1;entryX=0;entryY=0.5;entryDx=0;entryDy=0;strokeWidth=4;fontColor=#000000;strokeColor=#00CC00;" edge="1" parent="1" source="jR2HOFibQMmsSOz2MYRR-631" target="jR2HOFibQMmsSOz2MYRR-626">
          <mxGeometry relative="1" as="geometry" />
        </mxCell>
        <mxCell id="jR2HOFibQMmsSOz2MYRR-631" value="Grid" style="text;html=1;align=center;verticalAlign=middle;resizable=0;points=[];autosize=1;strokeColor=none;fillColor=none;fontStyle=1;fontSize=24;fontColor=#00CC00;" vertex="1" parent="1">
          <mxGeometry x="328" y="2" width="70" height="40" as="geometry" />
        </mxCell>
        <mxCell id="jR2HOFibQMmsSOz2MYRR-632" style="rounded=0;orthogonalLoop=1;jettySize=auto;html=1;strokeWidth=4;strokeColor=#CC0000;entryX=1;entryY=0;entryDx=0;entryDy=0;" edge="1" parent="1" source="jR2HOFibQMmsSOz2MYRR-633" target="jR2HOFibQMmsSOz2MYRR-366">
          <mxGeometry relative="1" as="geometry" />
        </mxCell>
        <mxCell id="jR2HOFibQMmsSOz2MYRR-633" value="Thred Group" style="text;html=1;align=center;verticalAlign=middle;resizable=0;points=[];autosize=1;strokeColor=none;fillColor=none;fontStyle=1;fontSize=24;fontColor=#CC0000;" vertex="1" parent="1">
          <mxGeometry x="1003" y="22" width="170" height="40" as="geometry" />
        </mxCell>
        <mxCell id="jR2HOFibQMmsSOz2MYRR-634" value="Thred (=Pixel)" style="text;html=1;align=center;verticalAlign=middle;resizable=0;points=[];autosize=1;strokeColor=none;fillColor=none;fontStyle=1;fontSize=24;fontColor=#6C8EBF;" vertex="1" parent="1">
          <mxGeometry x="858" y="62" width="180" height="40" as="geometry" />
        </mxCell>
        <mxCell id="jR2HOFibQMmsSOz2MYRR-635" value="" style="ellipse;whiteSpace=wrap;html=1;aspect=fixed;fillColor=none;strokeColor=none;" vertex="1" parent="1">
          <mxGeometry x="973" y="167" width="10" height="10" as="geometry" />
        </mxCell>
        <mxCell id="jR2HOFibQMmsSOz2MYRR-636" value="" style="pointerEvents=1;shadow=0;dashed=0;html=1;strokeColor=none;fillColor=#000000;labelPosition=center;verticalLabelPosition=bottom;verticalAlign=top;align=center;outlineConnect=0;shape=mxgraph.veeam.cpu;" vertex="1" parent="1">
          <mxGeometry x="903" y="272" width="40" height="40" as="geometry" />
        </mxCell>
        <mxCell id="jR2HOFibQMmsSOz2MYRR-637" value="" style="pointerEvents=1;shadow=0;dashed=0;html=1;strokeColor=none;fillColor=#000000;labelPosition=center;verticalLabelPosition=bottom;verticalAlign=top;align=center;outlineConnect=0;shape=mxgraph.veeam.cpu;" vertex="1" parent="1">
          <mxGeometry x="958" y="272" width="40" height="40" as="geometry" />
        </mxCell>
        <mxCell id="jR2HOFibQMmsSOz2MYRR-638" value="" style="pointerEvents=1;shadow=0;dashed=0;html=1;strokeColor=none;fillColor=#000000;labelPosition=center;verticalLabelPosition=bottom;verticalAlign=top;align=center;outlineConnect=0;shape=mxgraph.veeam.cpu;" vertex="1" parent="1">
          <mxGeometry x="1013" y="272" width="40" height="40" as="geometry" />
        </mxCell>
        <mxCell id="jR2HOFibQMmsSOz2MYRR-639" value="" style="pointerEvents=1;shadow=0;dashed=0;html=1;strokeColor=none;fillColor=#000000;labelPosition=center;verticalLabelPosition=bottom;verticalAlign=top;align=center;outlineConnect=0;shape=mxgraph.veeam.cpu;" vertex="1" parent="1">
          <mxGeometry x="1068" y="272" width="40" height="40" as="geometry" />
        </mxCell>
        <mxCell id="jR2HOFibQMmsSOz2MYRR-640" value="" style="ellipse;whiteSpace=wrap;html=1;aspect=fixed;fillColor=none;strokeColor=none;" vertex="1" parent="1">
          <mxGeometry x="988" y="202" width="10" height="10" as="geometry" />
        </mxCell>
        <mxCell id="jR2HOFibQMmsSOz2MYRR-641" value="" style="ellipse;whiteSpace=wrap;html=1;aspect=fixed;fillColor=none;strokeColor=none;" vertex="1" parent="1">
          <mxGeometry x="1008" y="202" width="10" height="10" as="geometry" />
        </mxCell>
        <mxCell id="jR2HOFibQMmsSOz2MYRR-642" value="" style="ellipse;whiteSpace=wrap;html=1;aspect=fixed;fillColor=none;strokeColor=none;" vertex="1" parent="1">
          <mxGeometry x="1028" y="202" width="10" height="10" as="geometry" />
        </mxCell>
        <mxCell id="jR2HOFibQMmsSOz2MYRR-643" style="rounded=0;orthogonalLoop=1;jettySize=auto;html=1;dashed=1;endArrow=none;endFill=0;" edge="1" parent="1" source="jR2HOFibQMmsSOz2MYRR-644" target="jR2HOFibQMmsSOz2MYRR-639">
          <mxGeometry relative="1" as="geometry" />
        </mxCell>
        <mxCell id="jR2HOFibQMmsSOz2MYRR-644" value="GPU Core" style="text;html=1;align=center;verticalAlign=middle;resizable=0;points=[];autosize=1;strokeColor=none;fillColor=none;fontStyle=1;fontSize=16;" vertex="1" parent="1">
          <mxGeometry x="1100" y="350" width="100" height="30" as="geometry" />
        </mxCell>
        <mxCell id="jR2HOFibQMmsSOz2MYRR-645" value="" style="ellipse;whiteSpace=wrap;html=1;aspect=fixed;fillColor=none;strokeColor=none;" vertex="1" parent="1">
          <mxGeometry x="968" y="202" width="10" height="10" as="geometry" />
        </mxCell>
        <mxCell id="jR2HOFibQMmsSOz2MYRR-646" value="スレッドが並列処理される&lt;br&gt;グループ" style="shape=callout;whiteSpace=wrap;html=1;perimeter=calloutPerimeter;rounded=1;position2=0;fontSize=18;fontStyle=1;fillColor=#f8cecc;strokeColor=#b85450;flipH=0;flipV=1;" vertex="1" parent="1">
          <mxGeometry x="1173" y="62" width="240" height="100" as="geometry" />
        </mxCell>
        <mxCell id="jR2HOFibQMmsSOz2MYRR-647" value="" style="rounded=0;whiteSpace=wrap;html=1;strokeWidth=4;fillColor=none;strokeColor=#CC0000;" vertex="1" parent="1">
          <mxGeometry x="963" y="162" width="80" height="80" as="geometry" />
        </mxCell>
        <mxCell id="jR2HOFibQMmsSOz2MYRR-648" style="edgeStyle=none;shape=connector;rounded=0;orthogonalLoop=1;jettySize=auto;html=1;entryX=0.116;entryY=0.474;entryDx=0;entryDy=0;labelBackgroundColor=default;strokeColor=#6c8ebf;strokeWidth=4;fontFamily=Helvetica;fontSize=11;fontColor=default;endArrow=classic;fillColor=#dae8fc;entryPerimeter=0;" edge="1" parent="1" source="jR2HOFibQMmsSOz2MYRR-634" target="jR2HOFibQMmsSOz2MYRR-635">
          <mxGeometry relative="1" as="geometry" />
        </mxCell>
        <mxCell id="jR2HOFibQMmsSOz2MYRR-649" style="rounded=0;orthogonalLoop=1;jettySize=auto;html=1;entryX=0.628;entryY=1.04;entryDx=0;entryDy=0;entryPerimeter=0;" edge="1" parent="1" source="jR2HOFibQMmsSOz2MYRR-636" target="jR2HOFibQMmsSOz2MYRR-645">
          <mxGeometry relative="1" as="geometry" />
        </mxCell>
        <mxCell id="jR2HOFibQMmsSOz2MYRR-650" style="edgeStyle=none;shape=connector;rounded=0;orthogonalLoop=1;jettySize=auto;html=1;entryX=0.5;entryY=1;entryDx=0;entryDy=0;labelBackgroundColor=default;strokeColor=default;fontFamily=Helvetica;fontSize=11;fontColor=default;endArrow=classic;" edge="1" parent="1" source="jR2HOFibQMmsSOz2MYRR-637" target="jR2HOFibQMmsSOz2MYRR-640">
          <mxGeometry relative="1" as="geometry" />
        </mxCell>
        <mxCell id="jR2HOFibQMmsSOz2MYRR-651" style="edgeStyle=none;shape=connector;rounded=0;orthogonalLoop=1;jettySize=auto;html=1;entryX=0.612;entryY=0.944;entryDx=0;entryDy=0;labelBackgroundColor=default;strokeColor=default;fontFamily=Helvetica;fontSize=11;fontColor=default;endArrow=classic;entryPerimeter=0;" edge="1" parent="1" source="jR2HOFibQMmsSOz2MYRR-638" target="jR2HOFibQMmsSOz2MYRR-641">
          <mxGeometry relative="1" as="geometry" />
        </mxCell>
        <mxCell id="jR2HOFibQMmsSOz2MYRR-652" style="edgeStyle=none;shape=connector;rounded=0;orthogonalLoop=1;jettySize=auto;html=1;entryX=0.5;entryY=1;entryDx=0;entryDy=0;labelBackgroundColor=default;strokeColor=default;fontFamily=Helvetica;fontSize=11;fontColor=default;endArrow=classic;" edge="1" parent="1" source="jR2HOFibQMmsSOz2MYRR-639" target="jR2HOFibQMmsSOz2MYRR-642">
          <mxGeometry relative="1" as="geometry" />
        </mxCell>
        <mxCell id="jR2HOFibQMmsSOz2MYRR-653" style="edgeStyle=orthogonalEdgeStyle;rounded=0;orthogonalLoop=1;jettySize=auto;html=1;curved=1;dashed=1;strokeWidth=2;" edge="1" parent="1" source="jR2HOFibQMmsSOz2MYRR-657" target="jR2HOFibQMmsSOz2MYRR-636">
          <mxGeometry relative="1" as="geometry">
            <Array as="points">
              <mxPoint x="1013" y="360" />
              <mxPoint x="923" y="360" />
            </Array>
          </mxGeometry>
        </mxCell>
        <mxCell id="jR2HOFibQMmsSOz2MYRR-654" style="edgeStyle=orthogonalEdgeStyle;shape=connector;curved=1;rounded=0;orthogonalLoop=1;jettySize=auto;html=1;dashed=1;labelBackgroundColor=default;strokeColor=default;strokeWidth=2;fontFamily=Helvetica;fontSize=11;fontColor=default;endArrow=classic;" edge="1" parent="1" source="jR2HOFibQMmsSOz2MYRR-657" target="jR2HOFibQMmsSOz2MYRR-637">
          <mxGeometry relative="1" as="geometry" />
        </mxCell>
        <mxCell id="jR2HOFibQMmsSOz2MYRR-655" style="edgeStyle=orthogonalEdgeStyle;shape=connector;curved=1;rounded=0;orthogonalLoop=1;jettySize=auto;html=1;dashed=1;labelBackgroundColor=default;strokeColor=default;strokeWidth=2;fontFamily=Helvetica;fontSize=11;fontColor=default;endArrow=classic;" edge="1" parent="1" source="jR2HOFibQMmsSOz2MYRR-657" target="jR2HOFibQMmsSOz2MYRR-638">
          <mxGeometry relative="1" as="geometry" />
        </mxCell>
        <mxCell id="jR2HOFibQMmsSOz2MYRR-656" style="edgeStyle=orthogonalEdgeStyle;shape=connector;curved=1;rounded=0;orthogonalLoop=1;jettySize=auto;html=1;dashed=1;labelBackgroundColor=default;strokeColor=default;strokeWidth=2;fontFamily=Helvetica;fontSize=11;fontColor=default;endArrow=classic;" edge="1" parent="1" source="jR2HOFibQMmsSOz2MYRR-657" target="jR2HOFibQMmsSOz2MYRR-639">
          <mxGeometry relative="1" as="geometry">
            <Array as="points">
              <mxPoint x="1013" y="360" />
              <mxPoint x="1088" y="360" />
            </Array>
          </mxGeometry>
        </mxCell>
        <mxCell id="jR2HOFibQMmsSOz2MYRR-657" value="" style="verticalLabelPosition=bottom;html=1;verticalAlign=top;align=center;strokeColor=none;fillColor=#000000;shape=mxgraph.azure.code_file;pointerEvents=1;container=0;" vertex="1" parent="1">
          <mxGeometry x="989.25" y="402" width="47.5" height="50" as="geometry" />
        </mxCell>
        <mxCell id="jR2HOFibQMmsSOz2MYRR-658" value="Compute Shader" style="text;html=1;align=center;verticalAlign=middle;resizable=0;points=[];autosize=1;strokeColor=none;fillColor=none;fontStyle=1;fontSize=17;fontColor=#000000;" vertex="1" parent="1">
          <mxGeometry x="933" y="452" width="160" height="30" as="geometry" />
        </mxCell>
      </root>
    </mxGraphModel>
  </diagram>
</mxfile>
